<svg width="300" height="66" viewBox="0 0 300 66" fill="none" xmlns="http://www.w3.org/2000/svg">
<path d="M86.1614 44.4975C88.4925 44.4975 90.4673 44.2137 92.5436 43.614C92.8683 43.5203 93.0756 43.2169 93.0419 42.8826L92.8446 40.8982C92.8235 40.6858 92.7185 40.5115 92.5403 40.3922C92.3615 40.2729 92.1595 40.2428 91.9536 40.3037C90.2699 40.8031 88.5473 41.0528 86.5422 41.0528C81.086 41.0528 79.2671 39.2047 79.2671 33.9132C79.2671 28.6211 81.0854 26.8149 86.5422 26.8149C88.5473 26.8149 90.2699 27.0646 91.9536 27.564C92.1595 27.6249 92.3615 27.5948 92.5403 27.4762C92.7185 27.3569 92.8241 27.1825 92.8446 26.9702L93.0419 24.9857C93.0749 24.6515 92.8683 24.3481 92.5436 24.2543C90.4673 23.6547 88.4925 23.3709 86.1614 23.3709C78.5054 23.3709 75.418 26.3948 75.418 33.9552C75.418 41.5155 78.5061 44.4975 86.1614 44.4975ZM98.1925 43.9935H100.608C100.991 43.9935 101.304 43.6828 101.304 43.3027V29.0831C103.926 27.5292 106.21 26.8994 109.002 26.8994H109.152C109.535 26.8994 109.847 26.5888 109.847 26.2087V24.0623C109.847 23.6815 109.535 23.3716 109.152 23.3716H108.96C106.338 23.3716 103.969 24.1279 100.838 26.0599L100.373 23.8762H98.1925C97.8097 23.8762 97.4969 24.1862 97.4969 24.567V43.3034C97.4969 43.6835 97.8097 43.9941 98.1925 43.9941V43.9935ZM123.171 44.4975C131.292 44.4975 134.295 41.5994 134.295 33.9552C134.295 26.269 131.292 23.3709 123.171 23.3709C115.05 23.3709 112.047 26.269 112.047 33.9552C112.047 41.5994 115.05 44.4975 123.171 44.4975ZM123.171 41.0954C117.715 41.0954 115.896 39.3312 115.896 33.9552C115.896 28.5372 117.715 26.7736 123.171 26.7736C128.627 26.7736 130.446 28.5372 130.446 33.9552C130.446 39.3312 128.627 41.0954 123.171 41.0954ZM144.055 43.9935H147.292C147.594 43.9935 147.851 43.812 147.95 43.5288L153.117 28.7056L158.243 43.5275C158.342 43.8113 158.598 43.9941 158.901 43.9941H162.138C162.44 43.9941 162.697 43.812 162.796 43.5282L169.295 24.7917C169.371 24.5742 169.338 24.3533 169.204 24.1659C169.07 23.9784 168.87 23.8762 168.638 23.8762H166.18C165.876 23.8762 165.617 24.0604 165.52 24.3461L160.477 39.206L155.309 24.3415C155.211 24.0577 154.954 23.8762 154.652 23.8762H151.668C151.366 23.8762 151.109 24.0577 151.011 24.3415L145.843 39.206L140.8 24.3461C140.703 24.0597 140.445 23.8762 140.141 23.8762H137.556C137.324 23.8762 137.125 23.9784 136.99 24.1659C136.855 24.3533 136.823 24.5742 136.899 24.7917L143.398 43.5282C143.497 43.812 143.754 43.9941 144.056 43.9941L144.055 43.9935ZM180.991 44.4975C184.121 44.4975 186.743 43.7831 189.662 42.1034L190.043 43.9935H192.223C192.606 43.9935 192.919 43.6828 192.919 43.3027V15.0319C192.919 14.6512 192.606 14.3412 192.223 14.3412H189.808C189.425 14.3412 189.112 14.6512 189.112 15.0319V25.4707C186.405 24.0007 183.91 23.3709 180.991 23.3709C174.519 23.3709 171.897 26.3948 171.897 33.9132C171.897 41.4736 174.519 44.4975 180.991 44.4975ZM181.752 41.0954C177.311 41.0954 175.746 39.2053 175.746 33.9552C175.746 28.663 177.311 26.7736 181.752 26.7736C184.374 26.7736 186.448 27.4453 189.112 29.1257V38.744C186.448 40.4243 184.374 41.0961 181.752 41.0961V41.0954ZM198.944 52.6038H199.982C203.958 52.6038 205.354 51.6377 206.919 47.8156L216.341 24.8265C216.431 24.6069 216.407 24.3776 216.274 24.1809C216.141 23.9843 215.936 23.8755 215.697 23.8755H213.185C212.894 23.8755 212.646 24.042 212.539 24.3101L206.707 38.8272L200.667 24.3022C200.557 24.0381 200.311 23.8755 200.024 23.8755H197.394C197.153 23.8755 196.947 23.9856 196.813 24.1849C196.681 24.3841 196.659 24.6155 196.753 24.8357L204.718 43.5321L203.576 46.3043C202.561 48.7403 201.927 49.2863 199.854 49.2863H198.943C198.559 49.2863 198.247 49.5969 198.247 49.977V51.9137C198.247 52.2944 198.559 52.6044 198.943 52.6044L198.944 52.6038ZM226.536 43.9935H228.373C228.656 43.9935 228.898 43.8355 229.011 43.5773L237.12 25.0087C237.217 24.7885 237.196 24.5552 237.063 24.3546C236.931 24.1541 236.724 24.0427 236.482 24.0427H235.377C235.093 24.0427 234.85 24.2013 234.738 24.4601L227.475 41.2206L220.212 24.4601C220.1 24.2013 219.857 24.0427 219.573 24.0427H218.426C218.184 24.0427 217.977 24.1541 217.844 24.3546C217.712 24.5552 217.692 24.7885 217.788 25.0087L225.898 43.5773C226.01 43.8355 226.253 43.9935 226.536 43.9935ZM251.543 44.4975C254.54 44.4975 256.619 44.1685 259.08 43.3407C259.398 43.2339 259.591 42.9259 259.547 42.5962L259.44 41.7888C259.412 41.5752 259.299 41.4028 259.113 41.2901C258.929 41.1774 258.723 41.1564 258.518 41.2285C256.293 42.0123 254.345 42.3138 251.585 42.3138C244.902 42.3138 242.576 40.5495 242.365 34.8373H260.101C260.464 34.8373 260.764 34.5627 260.794 34.2035C260.83 33.7684 260.848 33.2736 260.848 32.7794C260.848 26.1851 257.929 23.5393 250.612 23.5393C242.914 23.5393 239.911 26.4374 239.911 34.0816C239.911 41.8517 243.041 44.4975 251.543 44.4975ZM242.407 32.7375C242.703 27.4873 244.902 25.7237 250.612 25.7237C256.322 25.7237 258.395 27.5299 258.48 32.7375H242.407ZM274.214 44.4975C281.362 44.4975 283.773 42.9016 283.773 38.4497C283.773 34.6695 282.081 33.326 276.455 32.822L273.664 32.5697C268.884 32.1496 267.827 31.4779 267.827 29.2935C267.827 26.6052 269.519 25.7237 274.594 25.7237C277.504 25.7237 279.637 26.0252 281.778 26.6589C281.978 26.7179 282.175 26.691 282.351 26.5796C282.527 26.4682 282.635 26.303 282.666 26.0979L282.798 25.2138C282.85 24.8717 282.643 24.5499 282.309 24.451C280.074 23.789 277.737 23.5393 274.933 23.5393C267.954 23.5393 265.416 25.0932 265.416 29.4193C265.416 33.0317 267.109 34.2075 272.86 34.7953L275.652 35.0896C280.305 35.5936 281.362 36.1815 281.362 38.5336C281.362 41.4316 279.67 42.3138 274.51 42.3138C270.996 42.3138 268.586 41.9029 266.126 41.1118C265.923 41.0463 265.721 41.0718 265.54 41.1852C265.36 41.2993 265.25 41.469 265.223 41.68L265.109 42.551C265.066 42.8833 265.262 43.192 265.583 43.2968C268.154 44.1318 270.778 44.4975 274.215 44.4975H274.214ZM296.292 43.9935H298.981C299.364 43.9935 299.676 43.6828 299.676 43.3027V42.5425C299.676 42.1617 299.364 41.8517 298.981 41.8517H296.758C293.628 41.8517 292.782 41.0115 292.782 37.7779V26.1438H298.938C299.321 26.1438 299.633 25.8331 299.633 25.453V24.7347C299.633 24.354 299.321 24.044 298.938 24.044H292.782V18.7282C292.782 18.3481 292.469 18.0375 292.086 18.0375H291.254C290.88 18.0375 290.572 18.3324 290.559 18.704L290.371 24.0433H286.161C285.777 24.0433 285.465 24.3533 285.465 24.7341V25.4524C285.465 25.8325 285.777 26.1431 286.161 26.1431H290.329V37.9451C290.329 42.4809 291.937 43.9928 296.293 43.9928L296.292 43.9935Z" fill="#214D52"/>
<path fill-rule="evenodd" clip-rule="evenodd" d="M45.8161 63.3588C45.7448 62.4878 45.564 60.8789 45.3693 59.1448C45.0228 56.0527 44.6308 52.5622 44.7238 51.9507L44.7957 51.4815L45.2597 51.5896C45.9666 51.7548 48.4297 53.2897 49.7992 54.1436L50.5219 54.5906L51.8452 55.3993C52.9646 56.0868 54.0879 56.7762 55.2303 57.408C56.2474 56.6681 57.5331 55.3633 58.6702 53.9916C59.7744 52.6605 60.7314 51.2764 61.1565 50.2985C60.1407 49.4629 56.2606 47.1973 53.577 45.6303C52.5422 45.0261 51.6828 44.5241 51.2228 44.2409C49.0521 42.9033 46.7137 42.4524 44.5205 42.7067C42.9821 42.885 41.5123 43.4132 40.2213 44.2259C38.9297 45.0398 37.8163 46.1382 36.9919 47.4582C35.8079 49.3535 35.2126 51.7122 35.5228 54.3501C35.5762 54.8049 35.666 55.7467 35.7749 56.8916C36.0633 59.9194 36.4917 64.4146 36.8203 65.6788C37.8592 65.707 39.527 65.4258 41.2159 64.9946C42.9649 64.5483 44.7205 63.944 45.8141 63.3575L45.8161 63.3588Z" fill="#C0D271"/>
<path fill-rule="evenodd" clip-rule="evenodd" d="M32.1975 55.4782C32.2291 53.463 32.0859 51.6102 31.4404 49.941C30.8016 48.2901 29.6571 46.7972 27.6784 45.4733C26.2449 44.5139 24.4273 43.8631 22.5054 43.7327C20.7953 43.6167 19.0034 43.9116 17.3277 44.7655C16.4116 45.2328 14.623 46.4446 12.7037 47.8189C10.2578 49.5707 7.61318 51.5794 6.27734 52.6588C6.86936 53.7815 7.99862 55.0444 9.22622 56.2214C10.4763 57.4194 11.8207 58.5205 12.8199 59.3043L22.8961 52.0814L22.9192 52.9059C22.943 53.7461 22.8849 55.3013 22.8202 57.0282C22.7146 59.8659 22.5905 63.1769 22.7799 64.3919L23.7099 64.6521C26.0806 65.3239 29.4017 66.265 31.8602 65.9301L32.1981 55.4782H32.1975Z" fill="#99CC99"/>
<path fill-rule="evenodd" clip-rule="evenodd" d="M15.7484 41.8432C17.2011 40.6865 18.1904 39.2172 18.7712 37.639C19.418 35.8807 19.5606 33.9853 19.2761 32.2342C18.3759 26.6989 14.2238 24.9491 9.58734 22.9948C8.7729 22.6513 7.94328 22.302 7.08396 21.9114L6.55926 21.6716C5.34751 21.1151 3.41965 20.2297 2.44549 19.9401C1.88515 20.8537 1.24166 22.6389 0.753917 24.4339C0.268158 26.2225 -0.0585411 27.9939 0.00877879 28.8885L11.3033 33.8792L0.392238 39.9138C0.731477 41.3786 1.11296 42.8892 1.63568 44.373C2.14915 45.8299 2.80057 47.2638 3.68629 48.6067C4.67233 48.064 5.87485 47.444 7.15524 46.7847C10.2988 45.166 13.9123 43.3047 15.7478 41.8432H15.7484Z" fill="#7CB8A6"/>
<path fill-rule="evenodd" clip-rule="evenodd" d="M19.7324 23.2761C21.5903 23.3829 23.5808 22.9248 25.6717 21.6075C31.2256 18.1072 30.6012 13.0471 29.9729 7.9627C29.8891 7.27652 29.8039 6.58969 29.7267 5.82487C29.6917 5.48146 29.6607 5.12887 29.6264 4.73106C29.501 3.27155 29.3208 1.19336 29.0746 0.220134C28.1005 0.165083 26.1053 0.490147 24.1709 1.00658C22.4951 1.4542 20.8893 2.0401 20.0775 2.63649C20.1145 3.71785 20.3646 5.53782 20.6214 7.40891C20.9956 10.13 21.3837 12.9599 21.1672 13.9967L21.0418 14.5951L10.6699 8.46733C9.67333 9.21184 8.29723 10.6314 7.09868 12.083C5.99714 13.4174 5.0573 14.7622 4.7207 15.6024C5.85392 16.4485 10.4105 19.1204 12.9931 20.6337L14.5388 21.5433C16.1248 22.4916 17.8699 23.1686 19.733 23.2748L19.7324 23.2761Z" fill="#54AB68"/>
<path fill-rule="evenodd" clip-rule="evenodd" d="M34.387 15.8674C34.9948 17.5661 36.1333 19.1259 38.2176 20.495C44.912 24.8945 50.7167 20.2898 56.7015 15.541C57.6625 14.7801 58.6274 14.0153 59.5903 13.2885C57.8163 10.5313 55.5637 8.70482 53.3705 6.92745L53.0775 6.69021L43.0864 13.8574L43.0039 13.1102C42.8508 11.7248 42.9478 9.26713 43.0395 6.91697C43.1306 4.60809 43.2171 2.40539 43.0626 1.54161C41.775 1.0645 39.9488 0.584109 38.1179 0.289192C36.6692 0.0565346 35.2225 -0.060777 34.0457 0.0316304L33.7164 10.2784C33.6854 12.2609 33.7705 14.147 34.3863 15.868L34.387 15.8674Z" fill="#41747A"/>
</svg>
