<svg width="568" height="147" viewBox="0 0 568 147" fill="none" xmlns="http://www.w3.org/2000/svg">
<rect width="568" height="147" fill="white"/>
<path d="M34.1351 107.713C28.6995 107.713 23.7349 106.463 19.2414 103.963C14.8204 101.463 11.3416 97.9987 8.80496 93.5699C6.26832 89.0697 5 83.998 5 78.3549C5 72.7832 6.19585 67.783 8.58754 63.3542C11.0517 58.854 14.4943 55.3539 18.9153 52.8538C23.3363 50.2822 28.4096 48.9964 34.1351 48.9964C39.7882 48.9964 44.5716 50.2108 48.4853 52.6395C52.4714 55.0681 55.4067 58.3897 57.2911 62.6042L47.9417 67.7473C46.6372 65.0329 44.8253 62.8899 42.5061 61.3184C40.1868 59.7469 37.3965 58.9612 34.1351 58.9612C28.9894 58.9612 24.7858 60.747 21.5244 64.3186C18.3355 67.8187 16.741 72.4975 16.741 78.3549C16.741 84.1409 18.3355 88.8197 21.5244 92.3913C24.7858 95.9629 28.9894 97.7487 34.1351 97.7487C37.5415 97.7487 40.3318 96.9986 42.5061 95.4986C44.7528 93.9985 46.6009 91.8912 48.0504 89.1768L57.5085 93.9985C55.1168 98.3558 51.9279 101.749 47.9417 104.178C44.028 106.535 39.4259 107.713 34.1351 107.713Z" fill="#293737"/>
<path d="M59.8305 50.0679H72.1151L89.6179 93.7842L107.338 50.0679H119.514L95.8146 106.642H83.53L59.8305 50.0679Z" fill="#293737"/>
<path d="M177.707 50.0679V125.929H165.966V99.7845C162.125 105.07 156.001 107.713 147.594 107.713C142.013 107.713 137.157 106.463 133.026 103.963C128.895 101.392 125.706 97.8915 123.459 93.4627C121.285 88.9625 120.198 83.9623 120.198 78.4621C120.198 72.8904 121.285 67.8902 123.459 63.4614C125.706 58.9612 128.895 55.4253 133.026 52.8538C137.157 50.2822 142.013 48.9964 147.594 48.9964C151.507 48.9964 154.95 49.6036 157.921 50.8179C160.965 52.0323 163.357 53.6752 165.096 55.7467L167.053 50.0679H177.707ZM149.333 97.7487C154.696 97.7487 158.936 95.9629 162.052 92.3913C165.169 88.8197 166.727 84.1409 166.727 78.3549C166.727 72.5689 165.169 67.8902 162.052 64.3186C158.936 60.747 154.696 58.9612 149.333 58.9612C143.97 58.9612 139.73 60.747 136.613 64.3186C133.497 67.8902 131.939 72.5689 131.939 78.3549C131.939 84.1409 133.497 88.8197 136.613 92.3913C139.73 95.9629 143.97 97.7487 149.333 97.7487Z" fill="#293737"/>
<path d="M240.148 50.0679V106.642H229.386L226.885 100.213C225.073 102.427 222.754 104.249 219.928 105.678C217.101 107.035 213.695 107.713 209.709 107.713C202.751 107.713 197.605 105.928 194.271 102.356C191.01 98.7844 189.379 93.427 189.379 86.2839V50.0679H201.12V85.7481C201.12 93.8199 204.817 97.8558 212.209 97.8558C217.572 97.8558 221.595 96.1772 224.276 92.8199C227.03 89.3911 228.407 84.3195 228.407 77.6049V50.0679H240.148Z" fill="#293737"/>
<path d="M252.787 50.0679H264.528V106.642H252.787V50.0679ZM252.352 29.2812H265.072V41.9247H252.352V29.2812Z" fill="#293737"/>
<path d="M298.955 107.713C287.721 107.713 282.104 101.927 282.104 90.3555V60.0327H272.102V50.0679H282.104V31.6385H293.845V50.0679H307.76V60.0327H293.845V89.7126C293.845 92.427 294.425 94.4628 295.584 95.82C296.744 97.1058 298.556 97.7487 301.02 97.7487C303.557 97.7487 305.804 97.4272 307.76 96.7843V106.749C305.151 107.392 302.216 107.713 298.955 107.713Z" fill="#293737"/>
<path d="M319.912 117.035H326.218C329.697 117.035 332.052 115.678 333.284 112.964L334.263 110.928C334.915 109.499 335.241 108.178 335.241 106.963C335.241 105.606 334.879 104.106 334.154 102.463L312.629 50.0679H325.131L342.307 93.5699L359.593 50.0679H371.986L345.677 113.607C342.054 122.536 336.437 127 328.827 127H319.912V117.035Z" fill="#293737"/>
<path fill-rule="evenodd" clip-rule="evenodd" d="M421.795 76.7185C421.731 75.9526 421.567 74.5376 421.391 73.0126C421.078 70.2934 420.723 67.2238 420.807 66.686L420.872 66.2734L421.292 66.3685C421.931 66.5137 424.158 67.8635 425.397 68.6145L426.05 69.0076L427.247 69.7188C428.259 70.3234 429.275 70.9297 430.308 71.4853C431.227 70.8346 432.39 69.6871 433.418 68.4808C434.416 67.3102 435.282 66.093 435.666 65.2331C434.748 64.4982 431.239 62.5058 428.813 61.1277C427.877 60.5963 427.1 60.1549 426.684 59.9059C424.721 58.7295 422.607 58.333 420.624 58.5566C419.232 58.7134 417.903 59.1779 416.736 59.8926C415.568 60.6084 414.561 61.5744 413.816 62.7352C412.745 64.402 412.207 66.4763 412.488 68.7961C412.536 69.196 412.617 70.0243 412.716 71.0311C412.976 73.6939 413.364 77.647 413.661 78.7588C414.6 78.7836 416.108 78.5363 417.635 78.1571C419.217 77.7646 420.804 77.2332 421.793 76.7174L421.795 76.7185Z" fill="#C0D271"/>
<path fill-rule="evenodd" clip-rule="evenodd" d="M409.478 69.789C409.507 68.0168 409.378 66.3874 408.794 64.9195C408.216 63.4677 407.181 62.1547 405.392 60.9905C404.096 60.1467 402.453 59.5744 400.715 59.4597C399.168 59.3577 397.548 59.6171 396.033 60.368C395.205 60.779 393.587 61.8447 391.852 63.0533C389.64 64.5938 387.249 66.3603 386.041 67.3096C386.576 68.2969 387.597 69.4075 388.707 70.4426C389.838 71.4962 391.053 72.4645 391.957 73.1538L401.068 66.8018L401.089 67.5269C401.11 68.2658 401.058 69.6334 400.999 71.1521C400.904 73.6477 400.792 76.5594 400.963 77.628L401.804 77.8568C403.947 78.4475 406.95 79.2752 409.174 78.9807L409.479 69.789H409.478Z" fill="#99CC99"/>
<path fill-rule="evenodd" clip-rule="evenodd" d="M394.605 57.7993C395.919 56.782 396.813 55.4898 397.339 54.102C397.923 52.5556 398.052 50.8888 397.795 49.3488C396.981 44.481 393.227 42.9421 389.034 41.2235C388.298 40.9215 387.548 40.6143 386.771 40.2708L386.296 40.0598C385.201 39.5705 383.457 38.7919 382.576 38.5371C382.07 39.3405 381.488 40.9105 381.047 42.4891C380.608 44.062 380.312 45.6199 380.373 46.4066L390.586 50.7955L380.72 56.1025C381.027 57.3906 381.372 58.7191 381.844 60.024C382.309 61.3052 382.898 62.5662 383.698 63.7472C384.59 63.27 385.677 62.7247 386.835 62.1449C389.678 60.7213 392.945 59.0845 394.605 57.7993H394.605Z" fill="#7CB8A6"/>
<path fill-rule="evenodd" clip-rule="evenodd" d="M398.207 41.4698C399.887 41.5637 401.686 41.1608 403.577 40.0024C408.599 36.9241 408.034 32.4741 407.466 28.0028C407.391 27.3993 407.314 26.7953 407.244 26.1227C407.212 25.8207 407.184 25.5107 407.153 25.1608C407.04 23.8773 406.877 22.0497 406.654 21.1938C405.773 21.1454 403.969 21.4313 402.22 21.8854C400.705 22.2791 399.253 22.7943 398.519 23.3188C398.552 24.2698 398.778 25.8703 399.01 27.5158C399.349 29.9088 399.7 32.3974 399.504 33.3092L399.391 33.8354L390.012 28.4466C389.111 29.1013 387.867 30.3497 386.783 31.6263C385.787 32.7997 384.937 33.9824 384.633 34.7213C385.657 35.4654 389.778 37.8151 392.113 39.1459L393.511 39.9459C394.945 40.7799 396.523 41.3752 398.207 41.4686L398.207 41.4698Z" fill="#54AB68"/>
<path fill-rule="evenodd" clip-rule="evenodd" d="M411.457 34.9541C412.007 36.448 413.036 37.8197 414.921 39.0237C420.974 42.8928 426.223 38.8433 431.634 34.6671C432.503 33.998 433.376 33.3254 434.246 32.6862C432.642 30.2615 430.605 28.6552 428.622 27.0922L428.357 26.8835L419.323 33.1865L419.249 32.5294C419.11 31.311 419.198 29.1497 419.281 27.0829C419.363 25.0525 419.441 23.1154 419.302 22.3557C418.137 21.9361 416.486 21.5137 414.831 21.2543C413.521 21.0497 412.213 20.9466 411.148 21.0278L410.851 30.039C410.823 31.7825 410.9 33.4412 411.456 34.9547L411.457 34.9541Z" fill="#41747A"/>
</svg>
