<svg width="568" height="147" viewBox="0 0 568 147" fill="none" xmlns="http://www.w3.org/2000/svg">
<rect width="568" height="147" fill="white"/>
<path fill-rule="evenodd" clip-rule="evenodd" d="M59.0039 112.599C58.9121 111.477 58.6792 109.405 58.4284 107.171C57.9822 103.189 57.4773 98.6939 57.5971 97.9064L57.6898 97.3021L58.2873 97.4414C59.1977 97.654 62.3698 99.6308 64.1336 100.731L65.0643 101.306L66.7686 102.348C68.2101 103.233 69.6568 104.121 71.1282 104.935C72.438 103.982 74.0938 102.301 75.5583 100.535C76.9804 98.8205 78.2129 97.0379 78.7603 95.7786C77.4521 94.7025 72.455 91.7846 68.9989 89.7665C67.6661 88.9883 66.5595 88.3418 65.967 87.9772C63.1714 86.2545 60.1599 85.6738 57.3353 86.0013C55.354 86.2309 53.4611 86.9112 51.7985 87.9578C50.135 89.0061 48.7011 90.4207 47.6395 92.1206C46.1146 94.5615 45.3479 97.5992 45.7474 100.996C45.8162 101.582 45.9318 102.795 46.0721 104.27C46.4435 108.169 46.9952 113.958 47.4185 115.586C48.7563 115.623 50.9043 115.261 53.0794 114.705C55.3319 114.13 57.5929 113.352 59.0013 112.597L59.0039 112.599Z" fill="#C0D271"/>
<path fill-rule="evenodd" clip-rule="evenodd" d="M41.4677 102.45C41.5085 99.8545 41.3241 97.4684 40.4928 95.3186C39.67 93.1925 38.1961 91.2698 35.6478 89.5649C33.8016 88.3292 31.4607 87.4911 28.9856 87.3231C26.7832 87.1737 24.4755 87.5535 22.3174 88.6533C21.1376 89.2551 18.8341 90.8157 16.3623 92.5857C13.2122 94.8418 9.80632 97.4287 8.08594 98.8189C8.84838 100.265 10.3027 101.891 11.8837 103.407C13.4936 104.95 15.225 106.368 16.5119 107.377L29.4888 98.0753L29.5185 99.1371C29.5491 100.219 29.4743 102.222 29.391 104.446C29.255 108.101 29.0952 112.365 29.3392 113.93L30.5368 114.265C33.59 115.13 37.8671 116.342 41.0334 115.911L41.4686 102.45H41.4677Z" fill="#99CC99"/>
<path fill-rule="evenodd" clip-rule="evenodd" d="M20.2819 84.8882C22.1528 83.3985 23.4269 81.5061 24.1749 79.4737C25.0079 77.2091 25.1915 74.7682 24.8252 72.5129C23.6658 65.3842 18.3185 63.1306 12.3473 60.6137C11.2984 60.1715 10.2299 59.7216 9.12323 59.2185L8.44749 58.9096C6.8869 58.193 4.40407 57.0528 3.14948 56.6797C2.42784 57.8563 1.59909 60.1554 0.970948 62.4672C0.345353 64.7706 -0.0753934 67.052 0.011306 68.2041L14.5572 74.6315L0.505152 82.4033C0.942049 84.2898 1.43334 86.2353 2.10654 88.1461C2.76783 90.0224 3.60678 91.8692 4.74747 93.5986C6.01736 92.8997 7.56605 92.1013 9.21503 91.2522C13.2636 89.1674 17.9173 86.7704 20.2811 84.8882H20.2819Z" fill="#7CB8A6"/>
<path fill-rule="evenodd" clip-rule="evenodd" d="M25.4132 60.9773C27.8059 61.1149 30.3695 60.5249 33.0623 58.8284C40.215 54.3204 39.4109 47.8036 38.6017 41.2556C38.4937 40.3719 38.3841 39.4873 38.2846 38.5023C38.2396 38.0601 38.1996 37.606 38.1554 37.0937C37.9939 35.214 37.7619 32.5376 37.4448 31.2842C36.1902 31.2133 33.6207 31.6319 31.1294 32.297C28.9712 32.8735 26.9032 33.628 25.8577 34.3961C25.9053 35.7888 26.2275 38.1327 26.5581 40.5424C27.0401 44.0468 27.5399 47.6914 27.2611 49.0266L27.0996 49.7972L13.7419 41.9055C12.4584 42.8643 10.6862 44.6925 9.1426 46.562C7.72397 48.2805 6.51357 50.0125 6.08008 51.0945C7.53952 52.1842 13.4079 55.6253 16.7339 57.5742L18.7246 58.7457C20.7671 59.967 23.0145 60.8389 25.414 60.9756L25.4132 60.9773Z" fill="#54AB68"/>
<path fill-rule="evenodd" clip-rule="evenodd" d="M44.2827 51.4352C45.0656 53.6229 46.5318 55.6317 49.2161 57.3949C57.8376 63.0609 65.3133 57.1307 73.021 51.0148C74.2586 50.0349 75.5013 49.0499 76.7414 48.1139C74.4567 44.563 71.5556 42.2107 68.7311 39.9217L68.3537 39.6161L55.4865 48.8465L55.3803 47.8843C55.1831 46.1 55.308 42.9349 55.4262 39.9082C55.5435 36.9346 55.6548 34.0978 55.4559 32.9854C53.7976 32.3709 51.4456 31.7523 49.0878 31.3724C47.222 31.0728 45.3588 30.9217 43.8433 31.0407L43.4192 44.2372C43.3792 46.7904 43.4889 49.2196 44.2819 51.436L44.2827 51.4352Z" fill="#41747A"/>
<g clip-path="url(#clip0)">
<path d="M224.123 50.0073C220.806 46.4093 216.254 44.4277 211.305 44.4277C207.606 44.4277 204.218 45.5972 201.236 47.9035C199.731 49.0676 198.367 50.4918 197.165 52.1542C195.963 50.4923 194.599 49.0676 193.094 47.9035C190.112 45.5972 186.724 44.4277 183.025 44.4277C178.076 44.4277 173.524 46.4093 170.206 50.0073C166.929 53.5632 165.123 58.4211 165.123 63.6868C165.123 69.1065 167.143 74.0676 171.479 79.3C175.358 83.9805 180.933 88.7318 187.389 94.2337C189.594 96.1126 192.093 98.2423 194.688 100.511C195.373 101.111 196.253 101.442 197.165 101.442C198.077 101.442 198.957 101.111 199.641 100.512C202.236 98.2428 204.736 96.1121 206.942 94.2322C213.397 88.7313 218.972 83.9805 222.851 79.2996C227.188 74.0676 229.207 69.1065 229.207 63.6863C229.207 58.4211 227.401 53.5632 224.123 50.0073Z" fill="#7CB8A6"/>
</g>
<g clip-path="url(#clip1)">
<path d="M202.36 101.399C201.448 101.399 200.568 101.068 199.883 100.468C197.294 98.2042 194.798 96.0769 192.596 94.2005L192.585 94.1907C186.129 88.6889 180.553 83.9375 176.674 79.2571C172.338 74.0246 170.318 69.0636 170.318 63.6439C170.318 58.3782 172.124 53.5203 175.402 49.9643C178.719 46.3664 183.271 44.3848 188.221 44.3848C191.92 44.3848 195.308 45.5543 198.289 47.8605C199.794 49.0246 201.158 50.4493 202.36 52.1112C203.562 50.4493 204.926 49.0246 206.431 47.8605C209.413 45.5543 212.801 44.3848 216.5 44.3848C221.449 44.3848 226.001 46.3664 229.319 49.9643C232.597 53.5203 234.402 58.3782 234.402 63.6439C234.402 69.0636 232.383 74.0246 228.047 79.2566C224.168 83.9375 218.593 88.6884 212.138 94.1897C209.932 96.0691 207.432 98.1998 204.837 100.469C204.152 101.068 203.272 101.399 202.36 101.399V101.399ZM188.221 48.1387C184.332 48.1387 180.76 49.6905 178.162 52.5087C175.524 55.3694 174.072 59.3238 174.072 63.6439C174.072 68.2021 175.766 72.2787 179.564 76.8619C183.236 81.292 188.696 85.9455 195.019 91.3339L195.031 91.3437C197.241 93.2275 199.747 95.3631 202.355 97.6435C204.978 95.3587 207.488 93.2197 209.703 91.3329C216.025 85.9445 221.485 81.292 225.157 76.8619C228.955 72.2787 230.649 68.2021 230.649 63.6439C230.649 59.3238 229.196 55.3694 226.559 52.5087C223.961 49.6905 220.388 48.1387 216.5 48.1387C213.652 48.1387 211.037 49.0442 208.727 50.8297C206.67 52.4217 205.236 54.4341 204.396 55.8421C203.963 56.5662 203.203 56.9984 202.36 56.9984C201.518 56.9984 200.757 56.5662 200.325 55.8421C199.485 54.4341 198.051 52.4217 195.993 50.8297C193.684 49.0442 191.069 48.1387 188.221 48.1387V48.1387Z" fill="#41747A"/>
</g>
<path d="M125 89.5834C127.494 89.5834 129.851 89.1695 132.074 88.3418C134.296 87.514 136.22 86.2723 137.846 84.6168C139.526 82.9613 140.854 80.8918 141.83 78.4085C142.806 75.87 143.293 72.8901 143.293 69.4686C143.293 66.0472 142.806 63.0672 141.83 60.5287C140.908 57.935 139.608 55.8104 137.927 54.1549C136.301 52.4441 134.377 51.1749 132.155 50.3471C129.933 49.5194 127.575 49.1055 125.082 49.1055H114.756V89.5834H125ZM105 98.6889V40H125.407C129.309 40 132.968 40.6622 136.383 41.9866C139.797 43.2559 142.751 45.1598 145.245 47.6983C147.792 50.1816 149.797 53.2719 151.261 56.9693C152.724 60.6115 153.456 64.7779 153.456 69.4686C153.456 74.1593 152.724 78.3258 151.261 81.9679C149.797 85.6101 147.792 88.6729 145.245 91.1562C142.697 93.6395 139.716 95.5158 136.301 96.785C132.887 98.0543 129.228 98.6889 125.326 98.6889H105Z" fill="#54AB68"/>
<path d="M288.447 98.6889L259.992 54.2376V98.6889H250.235V40H262.675L288.854 81.6368V40H298.61V98.6889H288.447Z" fill="#54AB68"/>
<path d="M356.957 83.9546H332.566L327.2 98.6889H316.875L339.314 40H350.615L373.054 98.6889H362.404L356.957 83.9546ZM335.981 74.7663H353.542L344.761 50.761L335.981 74.7663Z" fill="#54AB68"/>
<path d="M408.625 49.3538V98.6889H398.869V49.3538H380.169V40H427.406V49.3538H408.625Z" fill="#54AB68"/>
<path d="M445.977 98.6889V40H481.587V49.271H455.733V64.8331H479.148V73.8558H455.733V89.4179H481.587V98.6889H445.977Z" fill="#54AB68"/>
<defs>
<clipPath id="clip0">
<rect width="64.0838" height="64.0838" fill="white" transform="translate(165.123 40.9248)"/>
</clipPath>
<clipPath id="clip1">
<rect width="64.0838" height="64.0838" fill="white" transform="translate(170.318 44.3848)"/>
</clipPath>
</defs>
</svg>
