<svg width="568" height="147" viewBox="0 0 568 147" fill="none" xmlns="http://www.w3.org/2000/svg">
<rect width="568" height="147" fill="white"/>
<path d="M116.894 61.7184C116.723 60.8657 116.411 59.9562 115.956 58.9899C115.558 57.9667 114.933 57.0288 114.08 56.1762C113.228 55.3236 112.119 54.613 110.755 54.0446C109.448 53.4762 107.827 53.192 105.895 53.192C104.474 53.192 103.166 53.4193 101.973 53.8741C100.836 54.272 99.8411 54.8404 98.9885 55.5794C98.1927 56.2615 97.5674 57.0573 97.1127 57.9668C96.6579 58.8762 96.4306 59.8426 96.4306 60.8657C96.4306 62.5142 96.9706 63.9636 98.0506 65.2142C99.1306 66.4079 100.779 67.2321 102.996 67.6868L111.437 69.3069C114.165 69.8184 116.581 70.6427 118.684 71.7795C120.788 72.9164 122.55 74.2806 123.971 75.8722C125.392 77.4069 126.472 79.1406 127.211 81.0733C127.95 83.0059 128.319 85.0238 128.319 87.127C128.319 89.4576 127.836 91.7597 126.87 94.0334C125.903 96.2503 124.482 98.2397 122.607 100.002C120.788 101.707 118.514 103.1 115.785 104.18C113.114 105.26 110.016 105.8 106.492 105.8C102.456 105.8 98.9885 105.231 96.0895 104.095C93.1905 102.901 90.7463 101.395 88.7568 99.5755C86.8241 97.7566 85.3462 95.7387 84.3231 93.5218C83.2999 91.2481 82.6746 89.0312 82.4473 86.8712L93.361 83.9722C93.4747 85.4502 93.8158 86.8712 94.3842 88.2354C95.0095 89.5997 95.8621 90.8218 96.9421 91.9018C98.0221 92.925 99.3579 93.7492 100.95 94.3744C102.541 94.9997 104.417 95.3124 106.577 95.3124C109.76 95.3124 112.176 94.6302 113.824 93.266C115.53 91.845 116.382 90.0544 116.382 87.8944C116.382 86.1323 115.757 84.6259 114.507 83.3754C113.256 82.068 111.437 81.187 109.05 80.7322L100.608 79.0269C95.7769 78.0606 91.9116 76.0995 89.0126 73.1437C86.1705 70.1311 84.7494 66.3226 84.7494 61.7184C84.7494 59.0468 85.2894 56.5741 86.3694 54.3004C87.5063 51.9699 89.041 49.9519 90.9737 48.2467C92.9063 46.5414 95.1516 45.2056 97.7095 44.2393C100.267 43.2729 102.967 42.7898 105.81 42.7898C109.448 42.7898 112.545 43.3014 115.103 44.3245C117.718 45.2908 119.878 46.5414 121.583 48.0761C123.289 49.6109 124.596 51.3162 125.506 53.192C126.472 55.0109 127.126 56.7731 127.467 58.4783L116.894 61.7184Z" fill="#307280"/>
<path d="M128.282 93.0955C128.282 91.2197 128.595 89.5712 129.22 88.1502C129.902 86.6723 130.811 85.3933 131.948 84.3133C133.085 83.2333 134.393 82.3807 135.87 81.7554C137.405 81.1301 139.054 80.6754 140.816 80.3912L151.133 78.8564C152.326 78.6859 153.151 78.3448 153.605 77.8332C154.06 77.2648 154.287 76.6111 154.287 75.8722C154.287 74.3943 153.691 73.1153 152.497 72.0353C151.36 70.9553 149.598 70.4153 147.211 70.4153C144.709 70.4153 142.777 71.0974 141.413 72.4616C140.105 73.8258 139.366 75.4174 139.196 77.2364L129.135 75.1048C129.305 73.4564 129.817 71.8079 130.669 70.1595C131.522 68.5111 132.687 67.0331 134.165 65.7258C135.643 64.4184 137.462 63.3668 139.622 62.571C141.782 61.7184 144.283 61.292 147.125 61.292C150.422 61.292 153.236 61.7468 155.566 62.6563C157.897 63.5089 159.773 64.6742 161.194 66.1521C162.672 67.5732 163.723 69.25 164.349 71.1827C165.031 73.1153 165.372 75.1332 165.372 77.2364V97.8703C165.372 99.0071 165.429 100.229 165.542 101.537C165.656 102.787 165.77 103.782 165.883 104.521H155.481C155.367 103.952 155.254 103.185 155.14 102.219C155.083 101.196 155.055 100.286 155.055 99.4903C153.975 101.139 152.412 102.588 150.365 103.839C148.376 105.089 145.818 105.715 142.692 105.715C140.475 105.715 138.457 105.345 136.638 104.606C134.876 103.924 133.369 103.015 132.119 101.878C130.868 100.684 129.902 99.3482 129.22 97.8703C128.595 96.3355 128.282 94.7439 128.282 93.0955ZM145.079 97.2734C146.273 97.2734 147.409 97.1313 148.49 96.8471C149.626 96.506 150.621 95.966 151.474 95.2271C152.326 94.4313 153.008 93.4365 153.52 92.2428C154.032 90.9923 154.287 89.4291 154.287 87.5533V85.6775L144.823 87.127C143.345 87.3544 142.095 87.8944 141.072 88.747C140.105 89.5428 139.622 90.7649 139.622 92.4134C139.622 93.6639 140.077 94.8008 140.986 95.8239C141.896 96.7903 143.26 97.2734 145.079 97.2734Z" fill="#307280"/>
<path d="M192.935 104.521H181.595L164.457 62.571H176.906L187.308 90.7081L197.284 62.571H209.221L192.935 104.521Z" fill="#307280"/>
<path d="M209.726 104.521V62.571H221.066V104.521H209.726ZM208.361 48.8435C208.361 46.854 209.044 45.1772 210.408 43.8129C211.772 42.4487 213.42 41.7666 215.353 41.7666C217.343 41.7666 218.991 42.4487 220.298 43.8129C221.663 45.1772 222.345 46.854 222.345 48.8435C222.345 50.7193 221.663 52.3393 220.298 53.7036C218.991 55.0678 217.343 55.7499 215.353 55.7499C213.42 55.7499 211.772 55.0678 210.408 53.7036C209.044 52.3393 208.361 50.7193 208.361 48.8435Z" fill="#307280"/>
<path d="M238.152 104.521H226.812V62.571H237.811V67.7721C239.118 65.6121 240.88 64.0205 243.097 62.9973C245.371 61.9742 247.645 61.4626 249.918 61.4626C252.533 61.4626 254.778 61.9173 256.654 62.8268C258.587 63.6794 260.178 64.8447 261.429 66.3226C262.679 67.8005 263.589 69.5626 264.157 71.609C264.783 73.6553 265.095 75.8153 265.095 78.089V104.521H253.755V80.0501C253.755 77.6627 253.13 75.6732 251.879 74.0816C250.686 72.49 248.725 71.6942 245.996 71.6942C243.495 71.6942 241.562 72.5469 240.198 74.2522C238.834 75.9006 238.152 77.9469 238.152 80.3912V104.521Z" fill="#307280"/>
<path d="M277.457 104.095C277.855 106.425 278.907 108.329 280.612 109.807C282.317 111.285 284.534 112.024 287.263 112.024C290.844 112.024 293.601 111.086 295.533 109.21C297.466 107.391 298.432 104.436 298.432 100.343V97.2734C297.579 98.6376 296.187 99.8882 294.254 101.025C292.322 102.105 289.82 102.645 286.751 102.645C283.966 102.645 281.379 102.133 278.992 101.11C276.605 100.087 274.53 98.6661 272.768 96.8471C271.062 95.0281 269.698 92.8965 268.675 90.4523C267.709 87.9512 267.226 85.2228 267.226 82.267C267.226 79.4817 267.709 76.8669 268.675 74.4227C269.641 71.9216 270.977 69.7332 272.682 67.8574C274.388 65.9816 276.434 64.5036 278.821 63.4236C281.209 62.3436 283.852 61.8036 286.751 61.8036C290.105 61.8036 292.748 62.4005 294.681 63.5942C296.613 64.7879 297.949 66.0952 298.688 67.5163V62.571H309.602V100.002C309.602 102.901 309.175 105.658 308.323 108.272C307.527 110.944 306.248 113.275 304.486 115.264C302.724 117.31 300.45 118.93 297.665 120.124C294.879 121.375 291.526 122 287.604 122C284.705 122 282.061 121.574 279.674 120.721C277.344 119.925 275.297 118.817 273.535 117.396C271.773 116.031 270.352 114.411 269.272 112.536C268.192 110.717 267.51 108.812 267.226 106.823L277.457 104.095ZM288.712 92.925C291.611 92.925 293.97 91.9586 295.789 90.026C297.665 88.0933 298.603 85.507 298.603 82.267C298.603 79.0269 297.636 76.469 295.704 74.5932C293.771 72.6606 291.44 71.6942 288.712 71.6942C287.291 71.6942 285.955 71.95 284.705 72.4616C283.511 72.9164 282.459 73.6269 281.55 74.5932C280.64 75.5027 279.93 76.6111 279.418 77.9185C278.907 79.2259 278.651 80.6754 278.651 82.267C278.651 85.5638 279.589 88.1786 281.465 90.1113C283.34 91.9871 285.756 92.925 288.712 92.925Z" fill="#307280"/>
<path d="M320.829 90.7081C320.943 92.3565 321.625 93.8344 322.876 95.1418C324.126 96.4492 326.002 97.1029 328.503 97.1029C330.379 97.1029 331.771 96.705 332.681 95.9092C333.59 95.0566 334.045 94.0618 334.045 92.925C334.045 91.9586 333.704 91.1344 333.022 90.4523C332.34 89.7134 331.175 89.1733 329.526 88.8323L323.984 87.5533C319.891 86.6439 316.907 85.0807 315.031 82.8638C313.155 80.5901 312.218 77.9754 312.218 75.0195C312.218 73.1437 312.615 71.3816 313.411 69.7332C314.207 68.0279 315.287 66.5784 316.651 65.3847C318.072 64.1342 319.721 63.1394 321.597 62.4005C323.529 61.6615 325.632 61.292 327.906 61.292C330.862 61.292 333.363 61.7184 335.409 62.571C337.456 63.3668 339.104 64.39 340.355 65.6405C341.662 66.891 342.628 68.2268 343.254 69.6479C343.879 71.0121 344.248 72.2627 344.362 73.3995L334.898 75.5311C334.784 74.9059 334.585 74.2806 334.301 73.6553C334.074 72.9732 333.676 72.3479 333.107 71.7795C332.539 71.2111 331.828 70.7563 330.976 70.4153C330.18 70.0742 329.185 69.9037 327.991 69.9037C326.513 69.9037 325.235 70.3016 324.155 71.0974C323.131 71.8932 322.62 72.8879 322.62 74.0816C322.62 75.1048 322.961 75.929 323.643 76.5543C324.382 77.1796 325.32 77.6059 326.457 77.8332L332.425 79.1122C336.575 79.9648 339.673 81.5564 341.719 83.887C343.822 86.2175 344.874 88.9176 344.874 91.9871C344.874 93.6923 344.533 95.3692 343.85 97.0176C343.225 98.6661 342.23 100.144 340.866 101.451C339.502 102.759 337.797 103.81 335.75 104.606C333.704 105.402 331.317 105.8 328.588 105.8C325.405 105.8 322.733 105.345 320.573 104.436C318.413 103.526 316.651 102.418 315.287 101.11C313.923 99.8029 312.9 98.4103 312.218 96.9324C311.592 95.3976 311.223 94.0334 311.109 92.8397L320.829 90.7081Z" fill="#307280"/>
<path fill-rule="evenodd" clip-rule="evenodd" d="M54.5243 109.966C54.441 108.962 54.2297 107.11 54.0023 105.113C53.5975 101.552 53.1395 97.5321 53.2482 96.828L53.3323 96.2876L53.8743 96.4121C54.7001 96.6023 57.5775 98.3699 59.1774 99.3533L60.0217 99.868L61.5676 100.799C62.8752 101.591 64.1875 102.385 65.5222 103.113C66.7103 102.26 68.2123 100.758 69.5408 99.1782C70.8307 97.6453 71.9487 96.0513 72.4452 94.9253C71.2586 93.963 66.7257 91.3539 63.5908 89.5493C62.3818 88.8535 61.3779 88.2754 60.8405 87.9493C58.3046 86.4089 55.5729 85.8897 53.0107 86.1825C51.2135 86.3878 49.4964 86.9961 47.9883 87.932C46.4794 88.8693 45.1787 90.1343 44.2157 91.6543C42.8324 93.837 42.137 96.5532 42.4994 99.591C42.5618 100.115 42.6667 101.199 42.7939 102.518C43.1308 106.005 43.6312 111.181 44.0152 112.637C45.2288 112.67 47.1772 112.346 49.1502 111.849C51.1934 111.335 53.2444 110.639 54.5219 109.964L54.5243 109.966Z" fill="#C0D271"/>
<path fill-rule="evenodd" clip-rule="evenodd" d="M38.6164 100.89C38.6534 98.5692 38.4861 96.4356 37.732 94.5133C36.9857 92.6121 35.6487 90.8929 33.3372 89.3683C31.6625 88.2634 29.5391 87.5139 27.2939 87.3638C25.2962 87.2302 23.2028 87.5698 21.2452 88.5532C20.175 89.0913 18.0855 90.4868 15.8434 92.0695C12.986 94.0869 9.89649 96.4001 8.33594 97.6432C9.02755 98.936 10.3468 100.39 11.7809 101.746C13.2412 103.126 14.8118 104.393 15.9791 105.296L27.7503 96.9783L27.7773 97.9277C27.8051 98.8953 27.7372 100.686 27.6617 102.675C27.5383 105.943 27.3934 109.756 27.6146 111.155L28.701 111.455C31.4705 112.228 35.3503 113.312 38.2224 112.926L38.6172 100.89H38.6164Z" fill="#99CC99"/>
<path fill-rule="evenodd" clip-rule="evenodd" d="M19.3977 85.1877C21.0947 83.8556 22.2505 82.1635 22.929 80.3461C23.6846 78.3212 23.8511 76.1385 23.5188 74.1218C22.4671 67.7474 17.6166 65.7323 12.2001 63.4817C11.2487 63.0862 10.2795 62.6839 9.27564 62.2341L8.66268 61.9579C7.24708 61.3171 4.99491 60.2975 3.85688 59.9639C3.20228 61.016 2.45053 63.0718 1.88074 65.139C1.31327 67.1987 0.931611 69.2387 1.01026 70.2689L14.2048 76.0162L1.45822 82.9658C1.85453 84.6526 2.30018 86.3922 2.91083 88.1009C3.51069 89.7787 4.27169 91.43 5.30641 92.9765C6.45832 92.3516 7.86313 91.6376 9.35892 90.8783C13.0313 89.0142 17.2527 86.8707 19.3969 85.1877H19.3977Z" fill="#7CB8A6"/>
<path fill-rule="evenodd" clip-rule="evenodd" d="M24.0526 63.8045C26.223 63.9275 28.5484 63.3999 30.991 61.8829C37.4792 57.8519 36.7498 52.0246 36.0158 46.1694C35.9179 45.3792 35.8184 44.5883 35.7282 43.7075C35.6873 43.312 35.6511 42.906 35.611 42.4479C35.4645 40.7671 35.254 38.3738 34.9664 37.2531C33.8284 37.1897 31.4976 37.564 29.2377 38.1587C27.2801 38.6742 25.4042 39.3489 24.4558 40.0358C24.499 41.2811 24.7912 43.3769 25.0912 45.5317C25.5283 48.6653 25.9817 51.9243 25.7288 53.1182L25.5823 53.8073L13.4656 46.7506C12.3014 47.608 10.6938 49.2427 9.29363 50.9144C8.00679 52.4511 6.90885 53.9998 6.51562 54.9673C7.83947 55.9417 13.1626 59.0187 16.1796 60.7614L17.9854 61.8089C19.8382 62.901 21.8768 63.6807 24.0534 63.8029L24.0526 63.8045Z" fill="#54AB68"/>
<path fill-rule="evenodd" clip-rule="evenodd" d="M41.1706 55.2729C41.8807 57.2292 43.2107 59.0255 45.6456 60.6021C53.4661 65.6686 60.2473 60.3659 67.239 54.8971C68.3616 54.0209 69.4888 53.1401 70.6137 52.3031C68.5412 49.1279 65.9097 47.0245 63.3476 44.9777L63.0053 44.7045L51.3335 52.9582L51.2371 52.0978C51.0582 50.5023 51.1716 47.6721 51.2787 44.9656C51.3852 42.3067 51.4862 39.7701 51.3057 38.7753C49.8015 38.2259 47.668 37.6727 45.5292 37.333C43.8368 37.0651 42.1467 36.93 40.772 37.0364L40.3872 48.8366C40.351 51.1197 40.4505 53.2918 41.1698 55.2737L41.1706 55.2729Z" fill="#41747A"/>
</svg>
