<svg width="777" height="83" viewBox="0 0 777 83" fill="none" xmlns="http://www.w3.org/2000/svg">
<path fill-rule="evenodd" clip-rule="evenodd" d="M26.6154 0.267742C26.6154 0.415 26.0165 0.535484 25.2846 0.535484C24.5527 0.535484 23.9538 0.655968 23.9538 0.803226C23.9538 0.950484 23.5945 1.07097 23.1554 1.07097C22.7162 1.07097 22.3569 1.19145 22.3569 1.33871C22.3569 1.48597 21.9976 1.60645 21.5585 1.60645C21.1193 1.60645 20.76 1.72694 20.76 1.87419C20.76 2.02145 20.5205 2.14194 20.2277 2.14194C19.9349 2.14194 19.6954 2.26242 19.6954 2.40968C19.6954 2.55694 19.4822 2.67742 19.2219 2.67742C18.9613 2.67742 18.5757 2.91839 18.3646 3.2129C18.1536 3.50742 17.7942 3.74839 17.5662 3.74839C17.3381 3.74839 16.9788 3.98936 16.7677 4.28387C16.5566 4.57839 16.2285 4.81936 16.0387 4.81936C15.5886 4.81936 12.2431 8.18487 12.2431 8.63762C12.2431 8.82852 12.0035 9.15865 11.7108 9.37097C11.418 9.58329 11.1785 9.94474 11.1785 10.1742C11.1785 10.4036 10.9389 10.7651 10.6462 10.9774C10.3534 11.1897 10.1138 11.5777 10.1138 11.8398C10.1138 12.1017 9.99408 12.3161 9.84769 12.3161C9.70131 12.3161 9.58154 12.5571 9.58154 12.8516C9.58154 13.1461 9.46177 13.3871 9.31538 13.3871C9.169 13.3871 9.04923 13.7485 9.04923 14.1903C9.04923 14.6321 8.92946 14.9935 8.78308 14.9935C8.63669 14.9935 8.51692 15.355 8.51692 15.7968C8.51692 16.2385 8.39715 16.6 8.25077 16.6C8.10438 16.6 7.98462 17.2024 7.98462 17.9387C7.98462 18.675 7.86485 19.2774 7.71846 19.2774C7.54706 19.2774 7.45231 22.044 7.45231 27.0419V34.8065H12.5092H17.5662V27.3097C17.5662 22.4903 17.6612 19.8129 17.8323 19.8129C17.9787 19.8129 18.0985 19.331 18.0985 18.7419C18.0985 18.1529 18.2182 17.671 18.3646 17.671C18.511 17.671 18.6308 17.43 18.6308 17.1355C18.6308 16.841 18.7505 16.6 18.8969 16.6C19.0433 16.6 19.1631 16.4174 19.1631 16.1941C19.1631 15.665 23.0244 11.7806 23.5504 11.7806C23.7723 11.7806 23.9538 11.6602 23.9538 11.5129C23.9538 11.3656 24.1934 11.2452 24.4862 11.2452C24.7789 11.2452 25.0185 11.1247 25.0185 10.9774C25.0185 10.8302 25.3778 10.7097 25.8169 10.7097C26.2561 10.7097 26.6154 10.5892 26.6154 10.4419C26.6154 10.2783 27.8575 10.1742 29.8092 10.1742C31.7609 10.1742 33.0031 10.2783 33.0031 10.4419C33.0031 10.5892 33.3624 10.7097 33.8015 10.7097C34.2407 10.7097 34.6 10.8302 34.6 10.9774C34.6 11.1247 34.8132 11.2452 35.0735 11.2452C35.3341 11.2452 35.7197 11.4861 35.9308 11.7806C36.1418 12.0752 36.4703 12.3161 36.6606 12.3161C37.1452 12.3161 39.9231 15.1609 39.9231 15.657C39.9231 15.8811 40.0428 16.0645 40.1892 16.0645C40.3356 16.0645 40.4554 16.3055 40.4554 16.6C40.4554 16.8945 40.5752 17.1355 40.7215 17.1355C40.8679 17.1355 40.9877 17.3765 40.9877 17.671C40.9877 17.9655 41.1075 18.2065 41.2538 18.2065C41.4002 18.2065 41.52 18.5679 41.52 19.0097C41.52 19.4515 41.6398 19.8129 41.7862 19.8129C41.9573 19.8129 42.0523 22.4903 42.0523 27.3097V34.8065H47.1092H52.1662V27.5774C52.1662 22.9366 52.0709 20.3484 51.9 20.3484C51.752 20.3484 51.6338 19.6343 51.6338 18.7419C51.6338 17.8496 51.5157 17.1355 51.3677 17.1355C51.2213 17.1355 51.1015 16.774 51.1015 16.3323C51.1015 15.8905 50.9818 15.529 50.8354 15.529C50.689 15.529 50.5692 15.1676 50.5692 14.7258C50.5692 14.284 50.4495 13.9226 50.3031 13.9226C50.1567 13.9226 50.0369 13.6816 50.0369 13.3871C50.0369 13.0926 49.9172 12.8516 49.7708 12.8516C49.6244 12.8516 49.5046 12.6106 49.5046 12.3161C49.5046 12.0216 49.3848 11.7806 49.2385 11.7806C49.0921 11.7806 48.9723 11.5397 48.9723 11.2452C48.9723 10.9506 48.8525 10.7097 48.7062 10.7097C48.5598 10.7097 48.44 10.5196 48.44 10.2872C48.44 10.0545 47.9609 9.40149 47.3754 8.83548C46.7898 8.26948 46.3108 7.67268 46.3108 7.50882C46.3108 7.11872 44.5528 5.35484 44.1642 5.35484C43.9984 5.35484 43.5271 4.99339 43.1169 4.55161C42.7068 4.10984 42.1795 3.74839 41.9456 3.74839C41.7114 3.74839 41.52 3.6279 41.52 3.48065C41.52 3.33339 41.3068 3.2129 41.0465 3.2129C40.7859 3.2129 40.4003 2.97194 40.1892 2.67742C39.9782 2.3829 39.5925 2.14194 39.332 2.14194C39.0717 2.14194 38.8585 2.02145 38.8585 1.87419C38.8585 1.72694 38.4992 1.60645 38.06 1.60645C37.6208 1.60645 37.2615 1.48597 37.2615 1.33871C37.2615 1.19145 36.9022 1.07097 36.4631 1.07097C36.0239 1.07097 35.6646 0.950484 35.6646 0.803226C35.6646 0.655968 35.0658 0.535484 34.3338 0.535484C33.6019 0.535484 33.0031 0.415 33.0031 0.267742C33.0031 0.104152 31.7609 0 29.8092 0C27.8575 0 26.6154 0.104152 26.6154 0.267742ZM88.3631 6.69355C88.3631 6.84081 87.884 6.96129 87.2985 6.96129C86.7129 6.96129 86.2338 7.08177 86.2338 7.22903C86.2338 7.37629 85.9943 7.49677 85.7015 7.49677C85.4088 7.49677 85.1692 7.61726 85.1692 7.76452C85.1692 7.91177 84.9297 8.03226 84.6369 8.03226C84.3442 8.03226 84.1046 8.15274 84.1046 8.3C84.1046 8.44726 83.8914 8.56774 83.6311 8.56774C83.3706 8.56774 82.9849 8.80871 82.7738 9.10323C82.5628 9.39774 82.2338 9.63871 82.0427 9.63871C81.5581 9.63871 79.3138 11.9448 79.3138 12.443C79.3138 12.6677 79.1941 12.8516 79.0477 12.8516C78.9013 12.8516 78.7815 13.0926 78.7815 13.3871C78.7815 13.6816 78.6618 13.9226 78.5154 13.9226C78.369 13.9226 78.2492 14.1635 78.2492 14.4581C78.2492 14.7526 78.1295 14.9935 77.9831 14.9935C77.8367 14.9935 77.7169 15.355 77.7169 15.7968C77.7169 16.2385 77.5972 16.6 77.4508 16.6C77.2956 16.6 77.1846 17.4924 77.1846 18.7419C77.1846 19.9915 77.2956 20.8839 77.4508 20.8839C77.5972 20.8839 77.7169 21.3658 77.7169 21.9548C77.7169 22.5439 77.8367 23.0258 77.9831 23.0258C78.1295 23.0258 78.2492 23.2668 78.2492 23.5613C78.2492 23.8558 78.369 24.0968 78.5154 24.0968C78.6618 24.0968 78.7815 24.3112 78.7815 24.5731C78.7815 24.8352 79.0211 25.2232 79.3138 25.4355C79.6066 25.6478 79.8462 25.9811 79.8462 26.1761C79.8462 26.6358 81.0484 27.8452 81.5054 27.8452C81.6991 27.8452 82.0305 28.0861 82.2415 28.3806C82.4526 28.6752 82.8119 28.9161 83.04 28.9161C83.2681 28.9161 83.6274 29.1571 83.8385 29.4516C84.0639 29.7659 84.5275 29.9871 84.9619 29.9871C85.3686 29.9871 85.7015 30.1076 85.7015 30.2548C85.7015 30.4021 85.9411 30.5226 86.2338 30.5226C86.5266 30.5226 86.7662 30.6431 86.7662 30.7903C86.7662 30.9376 87.0057 31.0581 87.2985 31.0581C87.5912 31.0581 87.8308 31.1785 87.8308 31.3258C87.8308 31.4731 88.1901 31.5935 88.6292 31.5935C89.0684 31.5935 89.4277 31.714 89.4277 31.8613C89.4277 32.0085 89.6672 32.129 89.96 32.129C90.2528 32.129 90.4923 32.2495 90.4923 32.3968C90.4923 32.544 90.7318 32.6645 91.0246 32.6645C91.3174 32.6645 91.5569 32.785 91.5569 32.9323C91.5569 33.0795 91.9162 33.2 92.3554 33.2C92.7945 33.2 93.1538 33.3205 93.1538 33.4677C93.1538 33.615 93.3934 33.7355 93.6862 33.7355C93.9789 33.7355 94.2185 33.856 94.2185 34.0032C94.2185 34.1505 94.458 34.271 94.7508 34.271C95.0435 34.271 95.2831 34.3915 95.2831 34.5387C95.2831 34.686 95.5226 34.8065 95.8154 34.8065C96.1082 34.8065 96.3477 34.9269 96.3477 35.0742C96.3477 35.2215 96.5359 35.3419 96.7658 35.3419C97.3037 35.3419 97.9446 35.9867 97.9446 36.5278C97.9446 36.7591 98.0644 36.9484 98.2108 36.9484C98.3572 36.9484 98.4769 37.5508 98.4769 38.2871C98.4769 39.0234 98.3572 39.6258 98.2108 39.6258C98.0644 39.6258 97.9446 39.8151 97.9446 40.0464C97.9446 40.5875 97.3037 41.2323 96.7658 41.2323C96.5359 41.2323 96.3477 41.3527 96.3477 41.5C96.3477 41.6473 96.1082 41.7677 95.8154 41.7677C95.5226 41.7677 95.2831 41.8882 95.2831 42.0355C95.2831 42.1961 94.2185 42.3032 92.6215 42.3032C91.0246 42.3032 89.96 42.1961 89.96 42.0355C89.96 41.8882 89.4809 41.7677 88.8954 41.7677C88.3098 41.7677 87.8308 41.6473 87.8308 41.5C87.8308 41.3527 87.4715 41.2323 87.0323 41.2323C86.5932 41.2323 86.2338 41.1118 86.2338 40.9645C86.2338 40.8173 85.9943 40.6968 85.7015 40.6968C85.4088 40.6968 85.1692 40.5763 85.1692 40.429C85.1692 40.2818 84.956 40.1613 84.6957 40.1613C84.4352 40.1613 84.0495 39.9203 83.8385 39.6258C83.6274 39.3313 83.2681 39.0903 83.04 39.0903C82.8119 39.0903 82.4526 38.8494 82.2415 38.5548C82.0305 38.2603 81.7015 38.0194 81.5104 38.0194C81.0925 38.0194 78.7815 40.2933 78.7815 40.7045C78.7815 40.8638 78.0576 41.7091 77.1726 42.5828L75.5637 44.1713L76.4985 45.1116C77.0124 45.6286 77.5902 46.0516 77.7824 46.0516C77.9746 46.0516 78.3043 46.2926 78.5154 46.5871C78.7264 46.8816 79.1121 47.1226 79.3727 47.1226C79.633 47.1226 79.8462 47.2431 79.8462 47.3903C79.8462 47.5376 80.0857 47.6581 80.3785 47.6581C80.6712 47.6581 80.9108 47.7786 80.9108 47.9258C80.9108 48.0731 81.1503 48.1936 81.4431 48.1936C81.7358 48.1936 81.9754 48.314 81.9754 48.4613C81.9754 48.6086 82.2149 48.729 82.5077 48.729C82.8005 48.729 83.04 48.8495 83.04 48.9968C83.04 49.144 83.3993 49.2645 83.8385 49.2645C84.2776 49.2645 84.6369 49.385 84.6369 49.5323C84.6369 49.6795 85.2358 49.8 85.9677 49.8C86.6996 49.8 87.2985 49.9205 87.2985 50.0677C87.2985 50.2356 88.984 50.3355 91.8231 50.3355C94.6621 50.3355 96.3477 50.2356 96.3477 50.0677C96.3477 49.9205 96.8268 49.8 97.4123 49.8C97.9978 49.8 98.4769 49.6795 98.4769 49.5323C98.4769 49.385 98.8362 49.2645 99.2754 49.2645C99.7145 49.2645 100.074 49.144 100.074 48.9968C100.074 48.8495 100.313 48.729 100.606 48.729C100.899 48.729 101.138 48.6086 101.138 48.4613C101.138 48.314 101.352 48.1936 101.612 48.1936C101.873 48.1936 102.258 47.9526 102.469 47.6581C102.68 47.3636 103.009 47.1226 103.2 47.1226C103.653 47.1226 105.929 44.8323 105.929 44.3774C105.929 44.1852 106.169 43.8543 106.462 43.6419C106.754 43.4296 106.994 43.0417 106.994 42.7795C106.994 42.5177 107.114 42.3032 107.26 42.3032C107.406 42.3032 107.526 41.9418 107.526 41.5C107.526 41.0582 107.646 40.6968 107.792 40.6968C107.956 40.6968 108.058 39.3581 108.058 37.2161C108.058 35.0742 107.956 33.7355 107.792 33.7355C107.646 33.7355 107.526 33.4005 107.526 32.9914C107.526 32.5545 107.306 32.0881 106.994 31.8613C106.701 31.649 106.462 31.3186 106.462 31.1271C106.462 30.6733 103.65 27.8452 103.199 27.8452C103.009 27.8452 102.68 27.6042 102.469 27.3097C102.258 27.0152 101.873 26.7742 101.612 26.7742C101.352 26.7742 101.138 26.6537 101.138 26.5065C101.138 26.3592 100.779 26.2387 100.34 26.2387C99.9008 26.2387 99.5415 26.1182 99.5415 25.971C99.5415 25.8237 99.302 25.7032 99.0092 25.7032C98.7165 25.7032 98.4769 25.5827 98.4769 25.4355C98.4769 25.2882 98.2374 25.1677 97.9446 25.1677C97.6518 25.1677 97.4123 25.0473 97.4123 24.9C97.4123 24.7527 97.053 24.6323 96.6138 24.6323C96.1747 24.6323 95.8154 24.5118 95.8154 24.3645C95.8154 24.2173 95.5758 24.0968 95.2831 24.0968C94.9903 24.0968 94.7508 23.9763 94.7508 23.829C94.7508 23.6818 94.3915 23.5613 93.9523 23.5613C93.5132 23.5613 93.1538 23.4408 93.1538 23.2935C93.1538 23.1463 92.9143 23.0258 92.6215 23.0258C92.3288 23.0258 92.0892 22.9053 92.0892 22.7581C92.0892 22.6108 91.7299 22.4903 91.2908 22.4903C90.8516 22.4903 90.4923 22.3698 90.4923 22.2226C90.4923 22.0753 90.2528 21.9548 89.96 21.9548C89.6672 21.9548 89.4277 21.8344 89.4277 21.6871C89.4277 21.5398 89.2427 21.4194 89.0165 21.4194C88.4839 21.4194 87.2985 20.2268 87.2985 19.6911C87.2985 19.4635 87.1787 19.2774 87.0323 19.2774C86.8859 19.2774 86.7662 18.916 86.7662 18.4742C86.7662 18.0324 86.8859 17.671 87.0323 17.671C87.1787 17.671 87.2985 17.43 87.2985 17.1355C87.2985 16.841 87.4182 16.6 87.5646 16.6C87.711 16.6 87.8308 16.359 87.8308 16.0645C87.8308 15.7076 88.0083 15.529 88.3631 15.529C88.6558 15.529 88.8954 15.4085 88.8954 15.2613C88.8954 15.114 89.2547 14.9935 89.6938 14.9935C90.133 14.9935 90.4923 14.8731 90.4923 14.7258C90.4923 14.567 91.4683 14.4581 92.8877 14.4581C94.3071 14.4581 95.2831 14.567 95.2831 14.7258C95.2831 14.8731 95.7622 14.9935 96.3477 14.9935C96.9332 14.9935 97.4123 15.114 97.4123 15.2613C97.4123 15.4085 97.6518 15.529 97.9446 15.529C98.2374 15.529 98.4769 15.6495 98.4769 15.7968C98.4769 15.944 98.7165 16.0645 99.0092 16.0645C99.302 16.0645 99.5415 16.185 99.5415 16.3323C99.5415 16.4795 99.7811 16.6 100.074 16.6C100.367 16.6 100.606 16.7205 100.606 16.8677C100.606 17.015 100.846 17.1355 101.138 17.1355C101.431 17.1355 101.671 17.256 101.671 17.4032C101.671 17.5505 101.859 17.671 102.089 17.671C102.577 17.671 103.268 17.0426 103.268 16.5981C103.268 16.4289 103.747 15.8273 104.332 15.2613C104.918 14.6953 105.397 14.0905 105.397 13.9172C105.397 13.7437 105.764 13.257 106.213 12.8355L107.028 12.069L105.82 10.8537C105.156 10.1854 104.43 9.63871 104.206 9.63871C103.983 9.63871 103.8 9.51823 103.8 9.37097C103.8 9.22371 103.56 9.10323 103.268 9.10323C102.975 9.10323 102.735 8.98274 102.735 8.83548C102.735 8.68823 102.496 8.56774 102.203 8.56774C101.91 8.56774 101.671 8.44726 101.671 8.3C101.671 8.15274 101.431 8.03226 101.138 8.03226C100.846 8.03226 100.606 7.91177 100.606 7.76452C100.606 7.61726 100.247 7.49677 99.8077 7.49677C99.3685 7.49677 99.0092 7.37629 99.0092 7.22903C99.0092 7.08177 98.6499 6.96129 98.2108 6.96129C97.7716 6.96129 97.4123 6.84081 97.4123 6.69355C97.4123 6.52567 95.7268 6.42581 92.8877 6.42581C90.0486 6.42581 88.3631 6.52567 88.3631 6.69355ZM120.834 6.69355C120.834 6.84081 120.475 6.96129 120.035 6.96129C119.596 6.96129 119.237 7.08177 119.237 7.22903C119.237 7.37629 118.878 7.49677 118.438 7.49677C117.999 7.49677 117.64 7.61726 117.64 7.76452C117.64 7.91177 117.427 8.03226 117.167 8.03226C116.906 8.03226 116.52 8.27323 116.309 8.56774C116.098 8.86226 115.77 9.10323 115.58 9.10323C115.096 9.10323 111.785 12.4859 111.785 12.9804C111.785 13.2042 111.665 13.3871 111.518 13.3871C111.372 13.3871 111.252 13.6281 111.252 13.9226C111.252 14.2171 111.133 14.4581 110.986 14.4581C110.84 14.4581 110.72 14.699 110.72 14.9935C110.72 15.2881 110.6 15.529 110.454 15.529C110.29 15.529 110.188 16.8677 110.188 19.0097C110.188 21.1516 110.29 22.4903 110.454 22.4903C110.6 22.4903 110.72 22.7313 110.72 23.0258C110.72 23.3203 110.84 23.5613 110.986 23.5613C111.133 23.5613 111.252 23.8023 111.252 24.0968C111.252 24.3913 111.372 24.6323 111.518 24.6323C111.665 24.6323 111.785 24.8151 111.785 25.039C111.785 25.5683 115.113 28.9161 115.639 28.9161C115.861 28.9161 116.043 29.0366 116.043 29.1839C116.043 29.3311 116.283 29.4516 116.575 29.4516C116.868 29.4516 117.108 29.5721 117.108 29.7194C117.108 29.8666 117.347 29.9871 117.64 29.9871C117.933 29.9871 118.172 30.1076 118.172 30.2548C118.172 30.4021 118.532 30.5226 118.971 30.5226C119.41 30.5226 119.769 30.6431 119.769 30.7903C119.769 30.9376 120.009 31.0581 120.302 31.0581C120.594 31.0581 120.834 31.1785 120.834 31.3258C120.834 31.4731 121.073 31.5935 121.366 31.5935C121.659 31.5935 121.898 31.714 121.898 31.8613C121.898 32.0085 122.258 32.129 122.697 32.129C123.136 32.129 123.495 32.2495 123.495 32.3968C123.495 32.544 123.735 32.6645 124.028 32.6645C124.32 32.6645 124.56 32.785 124.56 32.9323C124.56 33.0795 124.8 33.2 125.092 33.2C125.385 33.2 125.625 33.3205 125.625 33.4677C125.625 33.615 125.984 33.7355 126.423 33.7355C126.862 33.7355 127.222 33.856 127.222 34.0032C127.222 34.1505 127.461 34.271 127.754 34.271C128.047 34.271 128.286 34.3915 128.286 34.5387C128.286 34.686 128.47 34.8065 128.694 34.8065C128.919 34.8065 129.518 35.2241 130.025 35.7347C130.875 36.5896 130.948 36.7907 130.948 38.2871C130.948 39.7835 130.875 39.9846 130.025 40.8395C129.458 41.41 128.843 41.7677 128.428 41.7677C128.057 41.7677 127.754 41.8882 127.754 42.0355C127.754 42.1943 126.778 42.3032 125.358 42.3032C123.939 42.3032 122.963 42.1943 122.963 42.0355C122.963 41.8882 122.364 41.7677 121.632 41.7677C120.9 41.7677 120.302 41.6473 120.302 41.5C120.302 41.3527 120.062 41.2323 119.769 41.2323C119.476 41.2323 119.237 41.1118 119.237 40.9645C119.237 40.8173 118.904 40.6968 118.497 40.6968C118.063 40.6968 117.599 40.4756 117.374 40.1613C117.163 39.8668 116.777 39.6258 116.517 39.6258C116.256 39.6258 116.043 39.5053 116.043 39.3581C116.043 39.2108 115.83 39.0903 115.57 39.0903C115.309 39.0903 114.923 38.8494 114.712 38.5548C114.501 38.2603 114.167 38.0194 113.969 38.0194C113.533 38.0194 112.849 38.6702 112.849 39.086C112.849 39.252 112.131 40.0973 111.252 40.9645C110.374 41.8317 109.655 42.7022 109.655 42.8987C109.655 43.0952 109.416 43.4296 109.123 43.6419C108.83 43.8543 108.591 44.1905 108.591 44.3895C108.591 44.8556 109.247 45.5161 109.711 45.5161C109.908 45.5161 110.243 45.7571 110.454 46.0516C110.665 46.3461 111.024 46.5871 111.252 46.5871C111.48 46.5871 111.84 46.8281 112.051 47.1226C112.262 47.4171 112.647 47.6581 112.908 47.6581C113.168 47.6581 113.382 47.7786 113.382 47.9258C113.382 48.0731 113.621 48.1936 113.914 48.1936C114.207 48.1936 114.446 48.314 114.446 48.4613C114.446 48.6086 114.805 48.729 115.245 48.729C115.684 48.729 116.043 48.8495 116.043 48.9968C116.043 49.144 116.402 49.2645 116.842 49.2645C117.281 49.2645 117.64 49.385 117.64 49.5323C117.64 49.6795 118.119 49.8 118.705 49.8C119.29 49.8 119.769 49.9205 119.769 50.0677C119.769 50.2356 121.455 50.3355 124.294 50.3355C127.133 50.3355 128.818 50.2356 128.818 50.0677C128.818 49.9205 129.417 49.8 130.149 49.8C130.881 49.8 131.48 49.6795 131.48 49.5323C131.48 49.385 131.72 49.2645 132.012 49.2645C132.305 49.2645 132.545 49.144 132.545 48.9968C132.545 48.8495 132.784 48.729 133.077 48.729C133.37 48.729 133.609 48.6086 133.609 48.4613C133.609 48.314 133.849 48.1936 134.142 48.1936C134.434 48.1936 134.674 48.0731 134.674 47.9258C134.674 47.7786 134.855 47.6581 135.077 47.6581C135.603 47.6581 139.465 43.7737 139.465 43.2446C139.465 43.0213 139.584 42.8387 139.731 42.8387C139.877 42.8387 139.997 42.5977 139.997 42.3032C139.997 42.0087 140.117 41.7677 140.263 41.7677C140.409 41.7677 140.529 41.2858 140.529 40.6968C140.529 40.1077 140.649 39.6258 140.795 39.6258C140.953 39.6258 141.062 38.644 141.062 37.2161C141.062 35.7883 140.953 34.8065 140.795 34.8065C140.649 34.8065 140.529 34.445 140.529 34.0032C140.529 33.5615 140.409 33.2 140.263 33.2C140.117 33.2 139.997 32.8651 139.997 32.4559C139.997 32.019 139.777 31.5526 139.465 31.3258C139.172 31.1135 138.932 30.7818 138.932 30.5884C138.932 30.1317 137.192 28.3806 136.738 28.3806C136.545 28.3806 136.216 28.1397 136.005 27.8452C135.794 27.5506 135.408 27.3097 135.147 27.3097C134.887 27.3097 134.674 27.1892 134.674 27.0419C134.674 26.8947 134.434 26.7742 134.142 26.7742C133.849 26.7742 133.609 26.6537 133.609 26.5065C133.609 26.3592 133.37 26.2387 133.077 26.2387C132.784 26.2387 132.545 26.1182 132.545 25.971C132.545 25.8237 132.305 25.7032 132.012 25.7032C131.72 25.7032 131.48 25.5827 131.48 25.4355C131.48 25.2882 131.121 25.1677 130.682 25.1677C130.242 25.1677 129.883 25.0473 129.883 24.9C129.883 24.7527 129.644 24.6323 129.351 24.6323C129.058 24.6323 128.818 24.5118 128.818 24.3645C128.818 24.2173 128.459 24.0968 128.02 24.0968C127.581 24.0968 127.222 23.9763 127.222 23.829C127.222 23.6818 126.982 23.5613 126.689 23.5613C126.396 23.5613 126.157 23.4408 126.157 23.2935C126.157 23.1463 125.798 23.0258 125.358 23.0258C124.919 23.0258 124.56 22.9053 124.56 22.7581C124.56 22.6108 124.32 22.4903 124.028 22.4903C123.735 22.4903 123.495 22.3698 123.495 22.2226C123.495 22.0753 123.256 21.9548 122.963 21.9548C122.67 21.9548 122.431 21.8344 122.431 21.6871C122.431 21.5398 122.247 21.4194 122.023 21.4194C121.798 21.4194 121.199 21.0017 120.692 20.4911C119.882 19.6764 119.769 19.3974 119.769 18.2065C119.769 17.0155 119.882 16.7365 120.692 15.9218C121.259 15.3513 121.874 14.9935 122.289 14.9935C122.66 14.9935 122.963 14.8731 122.963 14.7258C122.963 14.5652 124.028 14.4581 125.625 14.4581C127.222 14.4581 128.286 14.5652 128.286 14.7258C128.286 14.8731 128.645 14.9935 129.085 14.9935C129.524 14.9935 129.883 15.114 129.883 15.2613C129.883 15.4085 130.242 15.529 130.682 15.529C131.121 15.529 131.48 15.6495 131.48 15.7968C131.48 15.944 131.72 16.0645 132.012 16.0645C132.305 16.0645 132.545 16.185 132.545 16.3323C132.545 16.4795 132.758 16.6 133.018 16.6C133.279 16.6 133.664 16.841 133.875 17.1355C134.086 17.43 134.416 17.671 134.608 17.671C135.033 17.671 136.803 15.9333 136.803 15.517C136.803 15.3531 137.282 14.7563 137.868 14.1903C138.453 13.6243 138.932 12.9713 138.932 12.7386C138.932 12.5062 139.052 12.3161 139.198 12.3161C139.345 12.3161 139.465 12.1268 139.465 11.8955C139.465 11.4015 138.839 10.7097 138.393 10.7097C138.221 10.7097 137.746 10.3482 137.335 9.90645C136.925 9.46468 136.398 9.10323 136.164 9.10323C135.93 9.10323 135.738 8.98274 135.738 8.83548C135.738 8.68823 135.499 8.56774 135.206 8.56774C134.913 8.56774 134.674 8.44726 134.674 8.3C134.674 8.15274 134.434 8.03226 134.142 8.03226C133.849 8.03226 133.609 7.91177 133.609 7.76452C133.609 7.61726 133.25 7.49677 132.811 7.49677C132.372 7.49677 132.012 7.37629 132.012 7.22903C132.012 7.08177 131.533 6.96129 130.948 6.96129C130.362 6.96129 129.883 6.84081 129.883 6.69355C129.883 6.52567 128.198 6.42581 125.358 6.42581C122.519 6.42581 120.834 6.52567 120.834 6.69355ZM144.788 28.3806V49.8H158.894H173V45.7839V41.7677H163.685H154.369V24.3645V6.96129H149.578H144.788V28.3806ZM0 62.1161V83H29.8092H59.6185V62.1161V41.2323H29.8092H0V62.1161ZM41.6573 53.4102C42.7528 54.5123 43.6492 55.538 43.6492 55.6898C43.6492 56.0499 39.2159 60.5097 38.8579 60.5097C38.707 60.5097 35.9526 63.1603 32.7369 66.4C29.5213 69.6397 26.7676 72.2903 26.6178 72.2903C26.4682 72.2903 24.249 70.1813 21.6865 67.6035L17.0277 62.9169L19.0225 60.91C20.1199 59.8063 21.1435 58.9032 21.2974 58.9032C21.4512 58.9032 22.7695 60.111 24.2267 61.5873L26.8762 64.2717L33.2 57.8598C36.6781 54.3334 39.5558 51.4389 39.5946 51.4273C39.6335 51.4158 40.5618 52.3082 41.6573 53.4102ZM117.108 55.9581C117.108 56.1053 116.509 56.2258 115.777 56.2258C115.045 56.2258 114.446 56.3463 114.446 56.4936C114.446 56.6408 114.207 56.7613 113.914 56.7613C113.621 56.7613 113.382 56.8818 113.382 57.029C113.382 57.1763 113.197 57.2968 112.97 57.2968C112.467 57.2968 111.252 58.4772 111.252 58.9659C111.252 59.1608 111.013 59.4941 110.72 59.7065C110.427 59.9188 110.188 60.3067 110.188 60.5688C110.188 60.8307 110.068 61.0452 109.922 61.0452C109.775 61.0452 109.655 61.5271 109.655 62.1161C109.655 62.7052 109.536 63.1871 109.389 63.1871C109.231 63.1871 109.123 64.1689 109.123 65.5968C109.123 67.0246 109.231 68.0065 109.389 68.0065C109.536 68.0065 109.655 68.3679 109.655 68.8097C109.655 69.2515 109.775 69.6129 109.922 69.6129C110.068 69.6129 110.188 69.9478 110.188 70.357C110.188 70.7939 110.408 71.2603 110.72 71.4871C111.013 71.6994 111.252 72.0357 111.252 72.2346C111.252 72.7008 111.909 73.3613 112.372 73.3613C112.57 73.3613 112.904 73.6023 113.115 73.8968C113.341 74.2111 113.804 74.4323 114.239 74.4323C114.646 74.4323 114.978 74.5527 114.978 74.7C114.978 74.8588 115.954 74.9677 117.374 74.9677C118.793 74.9677 119.769 74.8588 119.769 74.7C119.769 74.5527 120.009 74.4323 120.302 74.4323C120.594 74.4323 120.834 74.3118 120.834 74.1645C120.834 74.0173 121.019 73.8968 121.245 73.8968C121.471 73.8968 121.956 73.5956 122.322 73.2274L122.987 72.5581L122.263 71.8293C121.801 71.365 121.499 71.2194 121.43 71.4277C121.371 71.6076 121.119 71.7548 120.87 71.7548C120.622 71.7548 120.246 71.9958 120.035 72.2903C119.703 72.7541 119.346 72.8258 117.374 72.8258C115.401 72.8258 115.044 72.7541 114.712 72.2903C114.501 71.9958 114.116 71.7548 113.855 71.7548C113.578 71.7548 113.382 71.5567 113.382 71.2785C113.382 71.0164 113.142 70.6285 112.849 70.4161C112.537 70.1894 112.317 69.7229 112.317 69.286C112.317 68.8769 112.197 68.5419 112.051 68.5419C111.888 68.5419 111.785 67.2924 111.785 65.329C111.785 63.3657 111.888 62.1161 112.051 62.1161C112.197 62.1161 112.317 61.8752 112.317 61.5806C112.317 61.2861 112.437 61.0452 112.583 61.0452C112.729 61.0452 112.849 60.8591 112.849 60.6315C112.849 60.0958 114.035 58.9032 114.567 58.9032C114.793 58.9032 114.978 58.7827 114.978 58.6355C114.978 58.4882 115.218 58.3677 115.511 58.3677C115.804 58.3677 116.043 58.2473 116.043 58.1C116.043 57.9527 116.642 57.8323 117.374 57.8323C118.106 57.8323 118.705 57.9527 118.705 58.1C118.705 58.2473 118.944 58.3677 119.237 58.3677C119.53 58.3677 119.769 58.4882 119.769 58.6355C119.769 58.7827 119.999 58.9032 120.279 58.9032C120.56 58.9032 120.838 59.0505 120.898 59.2304C120.967 59.4387 121.269 59.2931 121.731 58.8288L122.455 58.1L121.79 57.4306C121.424 57.0625 120.939 56.7613 120.713 56.7613C120.487 56.7613 120.302 56.6408 120.302 56.4936C120.302 56.3463 119.703 56.2258 118.971 56.2258C118.239 56.2258 117.64 56.1053 117.64 55.9581C117.64 55.8108 117.52 55.6903 117.374 55.6903C117.227 55.6903 117.108 55.8108 117.108 55.9581ZM79.8462 56.4936C79.8462 56.6408 79.6066 56.7613 79.3138 56.7613C79.0211 56.7613 78.7815 56.8818 78.7815 57.029C78.7815 57.1763 78.5934 57.2968 78.3634 57.2968C77.8255 57.2968 77.1846 57.9415 77.1846 58.4826C77.1846 58.7139 77.0648 58.9032 76.9185 58.9032C76.7665 58.9032 76.6523 59.7065 76.6523 60.7774C76.6523 61.8484 76.7665 62.6516 76.9185 62.6516C77.0648 62.6516 77.1846 62.8377 77.1846 63.0653C77.1846 63.601 78.3701 64.7936 78.9026 64.7936C79.1289 64.7936 79.3138 64.914 79.3138 65.0613C79.3138 65.2086 79.5534 65.329 79.8462 65.329C80.1389 65.329 80.3785 65.4495 80.3785 65.5968C80.3785 65.744 80.618 65.8645 80.9108 65.8645C81.2035 65.8645 81.4431 65.985 81.4431 66.1323C81.4431 66.2795 81.8024 66.4 82.2415 66.4C82.6807 66.4 83.04 66.5205 83.04 66.6677C83.04 66.815 83.2795 66.9355 83.5723 66.9355C83.8651 66.9355 84.1046 67.056 84.1046 67.2032C84.1046 67.3505 84.2896 67.471 84.5158 67.471C84.7421 67.471 85.2211 67.7668 85.5804 68.1283C86.7544 69.309 86.3781 72.2903 85.0551 72.2903C84.8251 72.2903 84.6369 72.4108 84.6369 72.5581C84.6369 72.7168 83.6609 72.8258 82.2415 72.8258C80.8221 72.8258 79.8462 72.7168 79.8462 72.5581C79.8462 72.4108 79.6066 72.2903 79.3138 72.2903C79.0211 72.2903 78.7815 72.1698 78.7815 72.0226C78.7815 71.8753 78.5859 71.7548 78.3469 71.7548C78.1079 71.7548 77.6948 71.5024 77.4287 71.1939L76.9451 70.6327L76.2664 71.3155C75.893 71.6911 75.5877 72.1329 75.5877 72.2973C75.5877 72.7342 76.2823 73.3613 76.7665 73.3613C76.9964 73.3613 77.1846 73.4818 77.1846 73.629C77.1846 73.7763 77.4242 73.8968 77.7169 73.8968C78.0097 73.8968 78.2492 74.0173 78.2492 74.1645C78.2492 74.3118 78.4888 74.4323 78.7815 74.4323C79.0743 74.4323 79.3138 74.5527 79.3138 74.7C79.3138 74.8606 80.3785 74.9677 81.9754 74.9677C83.5723 74.9677 84.6369 74.8606 84.6369 74.7C84.6369 74.5527 84.9395 74.4323 85.3092 74.4323C86.2261 74.4323 88.3631 72.2826 88.3631 71.3602C88.3631 70.9883 88.4828 70.6839 88.6292 70.6839C88.7756 70.6839 88.8954 70.3224 88.8954 69.8806C88.8954 69.4389 88.7756 69.0774 88.6292 69.0774C88.4828 69.0774 88.3631 68.773 88.3631 68.4011C88.3631 67.6447 86.2618 65.329 85.5754 65.329C85.3521 65.329 85.1692 65.2086 85.1692 65.0613C85.1692 64.914 84.8099 64.7936 84.3708 64.7936C83.9316 64.7936 83.5723 64.6731 83.5723 64.5258C83.5723 64.3786 83.3328 64.2581 83.04 64.2581C82.7472 64.2581 82.5077 64.1376 82.5077 63.9903C82.5077 63.8431 82.1747 63.7226 81.7681 63.7226C81.3337 63.7226 80.87 63.5014 80.6446 63.1871C80.4336 62.8926 80.0993 62.6516 79.9015 62.6516C78.6631 62.6516 78.3384 60.1279 79.4349 59.0251C79.7942 58.6636 80.3931 58.3677 80.7657 58.3677C81.1383 58.3677 81.4431 58.2473 81.4431 58.1C81.4431 57.9527 81.9222 57.8323 82.5077 57.8323C83.0932 57.8323 83.5723 57.9527 83.5723 58.1C83.5723 58.2473 83.9316 58.3677 84.3708 58.3677C84.8099 58.3677 85.1692 58.4882 85.1692 58.6355C85.1692 58.7827 85.4088 58.9032 85.7015 58.9032C85.9943 58.9032 86.2338 59.0237 86.2338 59.171C86.2338 59.3182 86.422 59.4387 86.652 59.4387C87.1361 59.4387 87.8308 58.8117 87.8308 58.3747C87.8308 57.8197 86.5293 56.7613 85.8466 56.7613C85.474 56.7613 85.1692 56.6408 85.1692 56.4936C85.1692 56.3329 84.1046 56.2258 82.5077 56.2258C80.9108 56.2258 79.8462 56.3329 79.8462 56.4936ZM93.6862 65.5968V74.9677H99.5415H105.397V73.8968V72.8258H100.606H95.8154V69.7278C95.8154 67.3995 95.9099 66.5344 96.1957 66.2471C96.4877 65.9531 97.4123 65.8645 100.188 65.8645H103.8V65.0613V64.2581H100.188C97.4123 64.2581 96.4877 64.1694 96.1957 63.8755C95.9189 63.5973 95.8154 62.7943 95.8154 60.9303V58.3677H100.34H104.865V57.2968V56.2258H99.2754H93.6862V65.5968ZM126.689 63.7226C126.689 68.5419 126.784 71.2194 126.955 71.2194C127.102 71.2194 127.222 71.4603 127.222 71.7548C127.222 72.0494 127.341 72.2903 127.488 72.2903C127.634 72.2903 127.754 72.4764 127.754 72.704C127.754 73.2397 128.939 74.4323 129.472 74.4323C129.698 74.4323 129.883 74.5527 129.883 74.7C129.883 74.8606 130.948 74.9677 132.545 74.9677C134.142 74.9677 135.206 74.8606 135.206 74.7C135.206 74.5527 135.39 74.4323 135.614 74.4323C136.144 74.4323 137.868 72.6984 137.868 72.1653C137.868 71.9396 137.987 71.7548 138.134 71.7548C138.28 71.7548 138.4 71.3934 138.4 70.9516C138.4 70.5098 138.52 70.1484 138.666 70.1484C138.837 70.1484 138.932 67.6496 138.932 63.1871V56.2258H137.868H136.803V62.9194C136.803 67.2032 136.707 69.6129 136.537 69.6129C136.391 69.6129 136.271 69.9744 136.271 70.4161C136.271 70.8579 136.151 71.2194 136.005 71.2194C135.858 71.2194 135.738 71.4603 135.738 71.7548C135.738 72.1117 135.561 72.2903 135.206 72.2903C134.913 72.2903 134.674 72.4108 134.674 72.5581C134.674 72.7053 134.315 72.8258 133.875 72.8258C133.436 72.8258 133.077 72.9463 133.077 73.0936C133.077 73.2408 132.837 73.3613 132.545 73.3613C132.252 73.3613 132.012 73.2408 132.012 73.0936C132.012 72.9463 131.708 72.8258 131.335 72.8258C130.463 72.8258 129.351 71.7072 129.351 70.8298C129.351 70.455 129.231 70.1484 129.085 70.1484C128.914 70.1484 128.818 67.6496 128.818 63.1871V56.2258H127.754H126.689V63.7226ZM144.255 65.5968V74.9677H145.32H146.385V70.9516V66.9355H147.86C149.073 66.9355 149.453 67.053 149.99 67.5928C150.349 67.9542 150.643 68.4362 150.643 68.6638C150.643 68.8913 150.763 69.0774 150.909 69.0774C151.056 69.0774 151.175 69.3184 151.175 69.6129C151.175 69.9074 151.295 70.1484 151.442 70.1484C151.588 70.1484 151.708 70.3628 151.708 70.6247C151.708 70.8868 151.947 71.2748 152.24 71.4871C152.533 71.6994 152.772 72.0874 152.772 72.3495C152.772 72.6114 152.892 72.8258 153.038 72.8258C153.185 72.8258 153.305 73.0119 153.305 73.2395C153.305 74.0143 154.546 74.9677 155.555 74.9677C156.321 74.9677 156.498 74.8671 156.498 74.4323C156.498 74.1377 156.379 73.8968 156.232 73.8968C156.086 73.8968 155.966 73.6558 155.966 73.3613C155.966 73.0668 155.846 72.8258 155.7 72.8258C155.554 72.8258 155.434 72.6114 155.434 72.3495C155.434 72.0874 155.194 71.6994 154.902 71.4871C154.609 71.2748 154.369 70.8868 154.369 70.6247C154.369 70.3628 154.249 70.1484 154.103 70.1484C153.957 70.1484 153.837 69.9339 153.837 69.6721C153.837 69.41 153.597 69.022 153.305 68.8097C153.012 68.5974 152.772 68.2094 152.772 67.9473C152.772 67.6854 152.653 67.471 152.506 67.471C152.36 67.471 152.24 67.23 152.24 66.9355C152.24 66.5786 152.418 66.4 152.772 66.4C153.065 66.4 153.305 66.2795 153.305 66.1323C153.305 65.985 153.49 65.8645 153.716 65.8645C154.248 65.8645 155.434 64.672 155.434 64.1362C155.434 63.9087 155.554 63.7226 155.7 63.7226C155.855 63.7226 155.966 62.8302 155.966 61.5806C155.966 60.3311 155.855 59.4387 155.7 59.4387C155.554 59.4387 155.434 59.2526 155.434 59.0251C155.434 58.4893 154.248 57.2968 153.716 57.2968C153.49 57.2968 153.305 57.1763 153.305 57.029C153.305 56.8818 152.945 56.7613 152.506 56.7613C152.067 56.7613 151.708 56.6408 151.708 56.4936C151.708 56.3278 150.288 56.2258 147.982 56.2258H144.255V65.5968ZM161.289 65.5968V74.9677H167.145H173V73.8968V72.8258H168.209H163.418V69.7278C163.418 67.3995 163.513 66.5344 163.799 66.2471C164.091 65.9531 165.015 65.8645 167.791 65.8645H171.403V65.0613V64.2581H167.791C165.015 64.2581 164.091 64.1694 163.799 63.8755C163.522 63.5973 163.418 62.7943 163.418 60.9303V58.3677H167.943H172.468V57.2968V56.2258H166.878H161.289V65.5968ZM146.917 58.1C146.917 58.2598 147.94 58.3677 149.454 58.3677H151.992L152.914 59.296C153.724 60.1107 153.837 60.3897 153.837 61.5806C153.837 62.7716 153.724 63.0506 152.914 63.8653L151.992 64.7936H149.188H146.385V61.3129C146.385 59.171 146.487 57.8323 146.651 57.8323C146.797 57.8323 146.917 57.9527 146.917 58.1Z" fill="#666666"/>
<path fill-rule="evenodd" clip-rule="evenodd" d="M315.681 3.38084C309.248 3.77786 282.98 5.26191 246.276 7.30217C237.394 7.79591 230.073 8.25349 230.007 8.31882C229.941 8.38446 230.351 9.65034 230.916 11.1325C231.482 12.6143 235.512 23.506 239.872 35.3359L247.8 56.8452L247.959 41.8366L248.118 26.8283H257.339C267.593 26.8283 269.289 27.0328 272.918 28.7068C275.327 29.8183 277.24 31.6315 278.084 33.6017C278.868 35.4333 278.76 39.1602 277.865 41.1837C275.92 45.581 270.278 48.2329 262.868 48.2329H260.058L259.97 52.9103L259.882 57.5876L254.08 57.6741C250.888 57.7214 248.277 57.8479 248.277 57.9551C248.277 58.3198 256.277 79.784 256.49 79.9927C256.607 80.1068 260.923 78.8711 266.082 77.2465C271.241 75.622 281.47 72.4113 288.815 70.1117C296.159 67.812 303.356 65.5504 304.808 65.0862L307.447 64.2417L305.695 62.0496C304.732 60.8439 303.859 59.4743 303.756 59.0057L303.569 58.1542L299.689 57.97C288.09 57.4198 280.999 51.4332 281.033 42.2206C281.061 34.7607 285.99 29.1879 294.538 26.9507C299.356 25.6899 309.603 26.2064 310.909 27.7761C311.352 28.3079 311.204 35.7409 310.753 35.6264C310.578 35.5823 309.43 35.197 308.201 34.7705C300.418 32.07 294.176 34.7245 293.525 41.0124C293.224 43.9222 293.883 45.8765 295.811 47.7998C297.845 49.8286 299.673 50.4527 303.584 50.4527C305.994 50.4527 309.025 49.8876 311.309 49.0124C311.729 48.8516 311.866 48.9607 311.866 49.4563C311.866 49.8175 312.154 50.2672 312.507 50.4552C312.859 50.6436 313.896 51.4608 314.812 52.2716L316.476 53.7458L316.559 40.2079L316.641 26.6697H322.674H328.707L328.791 35.9961L328.876 45.3225L331.26 42.0024C332.572 40.1765 334.807 37.2281 336.227 35.4507L338.809 32.2191L338.101 30.6336C337.02 28.2166 335.972 25.895 330.595 14.0061L325.637 3.04534L324.077 3.00222C323.219 2.97843 319.441 3.14872 315.681 3.38084ZM326.617 11.2539C329.799 13.1138 330.807 16.8617 329.05 20.2969C327.324 23.6718 321.719 24.7329 318.13 22.3644C316.341 21.1829 315.22 18.6324 315.462 16.2918C315.864 12.4016 318.944 10.0217 323.219 10.2957C324.608 10.3848 325.616 10.6692 326.617 11.2539ZM393.81 15.2818C389.803 16.2236 387.583 18.9856 387.931 22.5968C388.229 25.695 390.695 27.5805 396.427 29.0927C399.989 30.033 401.208 30.8105 401.208 32.1449C401.208 32.5559 400.918 33.2028 400.563 33.5823C398.704 35.5728 394.804 34.4315 394.008 31.6642C393.725 30.6783 393.718 30.6757 391.664 30.7433C390.53 30.7804 388.987 30.8952 388.235 30.9985C386.896 31.1822 386.871 31.2075 387.075 32.1782C387.74 35.353 389.851 37.725 392.762 38.5691C395.089 39.2439 399.947 39.263 402.212 38.6062C405.892 37.5392 408.202 34.6805 408.202 31.1929C408.202 27.1708 405.608 24.9177 399.3 23.4613C395.606 22.6089 394.874 22.2816 394.648 21.3845C394.34 20.1624 395.293 19.3763 397.081 19.3763C398.814 19.3763 400.065 20.1697 400.395 21.4781L400.607 22.3213L403.995 22.1028C405.858 21.9829 407.424 21.8437 407.474 21.7942C407.523 21.7444 407.354 21.0018 407.096 20.1437C406.351 17.657 404.679 16.1615 401.784 15.3928C399.927 14.8997 395.687 14.8407 393.81 15.2818ZM417.656 15.2818C415.052 15.8935 412.742 17.6189 412.038 19.4762C411.559 20.7395 411.619 23.3753 412.148 24.3866C413.238 26.4658 415.57 27.8579 419.906 29.0151C424.059 30.1237 425.053 30.7525 425.053 32.2695C425.053 32.5302 424.635 33.1606 424.124 33.6705C423.382 34.41 422.916 34.5971 421.819 34.5961C419.56 34.5942 418.451 33.6648 417.649 31.1016C417.521 30.691 417.011 30.6507 414.256 30.8352C412.473 30.9548 410.945 31.1222 410.86 31.2072C410.514 31.5516 411.192 33.7285 412.131 35.2928C412.909 36.5888 413.518 37.1545 414.879 37.8465C418.077 39.4726 424.337 39.5826 427.474 38.0681C430.899 36.4144 432.687 32.7509 431.755 29.297C430.987 26.4554 428.822 24.998 423.172 23.5196C419.027 22.4348 418.376 22.1145 418.376 21.1584C418.376 20.0429 419.34 19.3763 420.954 19.3763C422.615 19.3763 423.541 19.9335 424.094 21.2663C424.451 22.1253 424.641 22.2303 425.84 22.2303C426.58 22.2303 428.065 22.1386 429.14 22.0267C431.342 21.7968 431.482 21.551 430.601 19.4454C429.342 16.4345 426.223 14.9099 421.443 14.9685C420.019 14.9863 418.315 15.1271 417.656 15.2818ZM362.736 26.9868V38.7198H369.196C374.187 38.7198 376.046 38.6047 377.366 38.2133C381.217 37.073 383.315 34.5971 384.063 30.3098C384.842 25.8491 383.856 21.0769 381.618 18.4681C379.345 15.8212 377.042 15.2539 368.56 15.2539H362.736V26.9868ZM375.053 21.4809C376.352 22.4395 376.828 23.6823 376.978 26.5112C377.148 29.6899 376.692 31.4488 375.424 32.513C374.584 33.2177 374.151 33.329 372.25 33.329H370.049V26.9501V20.5708L372.112 20.7018C373.534 20.7922 374.448 21.0341 375.053 21.4809ZM353.516 24.0152C350.742 24.4548 348.912 25.2662 347.559 26.6564C342.698 31.6527 332.242 44.9763 329.511 49.6539C329.162 50.2532 327.946 52.2072 326.809 53.9967C325.672 55.7858 324.17 58.244 323.471 59.4598C322.771 60.6752 322.035 61.7214 321.835 61.7841C321.635 61.8472 319.168 59.8844 316.353 57.422C310.615 52.4029 310.84 52.4825 308.497 54.6366C306.767 56.2272 306.19 57.7629 306.911 58.8601C307.545 59.8241 315.145 69.311 316.277 70.5509C318.239 72.6977 322.478 73.4105 325.163 72.0447C326.181 71.5263 326.711 70.8978 327.788 68.9308C329.002 66.7107 331.125 63.0174 334.854 56.6362C337.141 52.7209 341.768 45.3432 344.642 41.0267C348.331 35.4862 351.461 31.6366 355.392 27.8047C357.168 26.0745 358.569 24.5049 358.507 24.3165C358.394 23.9756 355.044 23.7733 353.516 24.0152ZM259.723 37.4504V41.6571L262.072 41.5068C265.091 41.3137 266.389 40.5999 267.026 38.7841C267.437 37.6118 267.437 37.2922 267.026 36.1306C266.42 34.4166 264.921 33.6147 261.924 33.4006L259.723 33.2437V37.4504ZM364.649 42.8761C362.943 43.2357 362.101 44.4346 362.101 46.5015C362.101 47.9314 362.249 48.3883 362.975 49.1988C363.989 50.3303 365.989 50.7622 367.439 50.1632C368.521 49.716 369.686 47.9812 369.035 47.7852C368.806 47.7161 368.348 47.5715 368.018 47.4636C367.618 47.333 367.266 47.4823 366.966 47.9089C366.466 48.6208 365.296 48.7558 364.708 48.1695C364.239 47.7024 364.209 45.8734 364.655 45.041C365.051 44.303 366.138 44.2434 366.887 44.9189C367.504 45.4763 369.095 45.2474 369.095 44.6011C369.095 43.4396 366.589 42.4673 364.649 42.8761ZM372.977 42.8637C371.589 43.1567 370.75 43.9606 370.372 45.36C369.82 47.4056 370.748 49.4963 372.504 50.1622C376.112 51.5305 379.174 48.1064 377.496 44.5792C377.22 43.9996 376.756 43.4266 376.463 43.3057C375.29 42.8215 373.97 42.6538 372.977 42.8637ZM379.269 46.4889V50.1356H380.223H381.177L381.208 47.678L381.239 45.2204L381.879 47.678C382.49 50.0189 382.563 50.1356 383.426 50.1356C384.372 50.1356 384.582 49.7262 385.188 46.7029C385.568 44.8095 385.946 45.3263 385.946 47.7386C385.946 50.0839 385.963 50.1356 386.741 50.1356H387.536V46.4714V42.8073L386.04 42.904L384.545 43.0007L384.038 45.0568C383.475 47.3431 383.338 47.3013 382.753 44.6655L382.348 42.8421H380.809H379.269V46.4889ZM389.126 46.4889V50.1356H390.239C391.319 50.1356 391.351 50.0994 391.351 48.9084C391.351 47.6875 391.359 47.6802 392.795 47.5188C394.62 47.3137 395.485 46.5589 395.485 45.1713C395.485 43.3616 394.634 42.8421 391.669 42.8421H389.126V46.4889ZM396.756 46.4889V50.1356H399.777C402.77 50.1356 402.797 50.1286 402.797 49.3587C402.797 48.6353 402.671 48.5751 400.969 48.4866L399.141 48.3915L399.049 45.6168L398.957 42.8421H397.857H396.756V46.4889ZM403.751 46.4889V50.1356H405.023H406.295V46.4889V42.8421H405.023H403.751V46.4889ZM408.714 46.0928C408.034 47.8803 407.411 49.5213 407.329 49.7392C407.06 50.4584 409.4 50.2326 409.792 49.5014C410.031 49.0565 410.458 48.8672 411.223 48.8672C411.988 48.8672 412.415 49.0565 412.653 49.5014C413.046 50.2326 415.386 50.4584 415.117 49.7392C415.035 49.5213 414.412 47.8803 413.731 46.0928L412.495 42.8431H411.223H409.951L408.714 46.0928ZM416.151 46.4889V50.1356H417.248H418.345L418.44 48.3287L418.535 46.5218L419.78 48.3287C420.875 49.9168 421.154 50.1356 422.086 50.1356H423.146V46.4889V42.8421H422.192C421.247 42.8421 421.238 42.8599 421.238 44.5862C421.238 45.5455 421.119 46.3303 420.973 46.3303C420.827 46.3303 420.166 45.5455 419.503 44.5862C418.445 43.0533 418.169 42.8421 417.225 42.8421H416.151V46.4889ZM424.417 43.7935C424.417 44.6693 424.506 44.7448 425.53 44.7448H426.643V47.4402V50.1356H427.756H428.869V47.4592V44.7831L430.061 44.6845C431.096 44.5992 431.266 44.4714 431.354 43.7142L431.454 42.8421H427.936H424.417V43.7935ZM375.408 45.4957C376.058 46.8545 375.548 48.3601 374.392 48.4936C373.905 48.5497 373.302 48.4254 373.051 48.2171C372.485 47.749 372.441 45.34 372.988 44.7946C373.657 44.1277 374.93 44.4965 375.408 45.4957ZM393.1 45.2204C393.1 45.6764 392.855 45.8829 392.226 45.9548C391.468 46.0421 391.351 45.9441 391.351 45.2204C391.351 44.4968 391.468 44.3988 392.226 44.486C392.855 44.558 393.1 44.7644 393.1 45.2204ZM411.838 47.3143C411.612 47.6799 410.835 47.6821 410.609 47.3181C410.514 47.1637 410.597 46.5757 410.794 46.0116L411.153 44.9855L411.584 46.0078C411.82 46.57 411.935 47.158 411.838 47.3143ZM343.256 48.3899C342.421 49.6964 341.309 51.4922 340.784 52.3801L339.829 53.9944L340.711 53.8013C342.858 53.3307 347.316 51.7424 347.316 51.4484C347.316 51.0029 345.129 46.0211 344.932 46.0176C344.844 46.0157 344.09 47.0834 343.256 48.3899Z" fill="#666666"/>
<path fill-rule="evenodd" clip-rule="evenodd" d="M752.271 16.4178C752.012 16.7119 751.938 20.8182 751.938 35.0173C751.938 53.0619 751.943 53.2392 752.47 53.2392C752.762 53.2392 753.002 53.3588 753.002 53.5051C753.002 53.6654 754.113 53.7709 755.805 53.7709C758.427 53.7709 758.651 53.7286 759.261 53.1182C759.904 52.4751 759.914 52.3994 759.914 47.8012V43.1369H760.587C761.336 43.1369 763.104 44.7179 763.104 45.3878C763.104 45.612 763.224 45.7954 763.37 45.7954C763.516 45.7954 763.636 45.9865 763.636 46.2205C763.636 46.4542 763.995 46.9808 764.433 47.3905C764.872 47.8002 765.231 48.3268 765.231 48.5605C765.231 48.7944 765.35 48.9856 765.497 48.9856C765.643 48.9856 765.762 49.1985 765.762 49.4585C765.762 49.7188 766.002 50.104 766.294 50.3148C766.587 50.5257 766.826 50.8846 766.826 51.1124C766.826 51.3402 767.065 51.6991 767.358 51.9099C767.65 52.1208 767.889 52.506 767.889 52.7663C767.889 53.0619 768.088 53.2392 768.421 53.2392C768.713 53.2392 768.953 53.3588 768.953 53.5051C768.953 53.6693 770.332 53.7709 772.561 53.7709C775.333 53.7709 776.257 53.6829 776.548 53.391C776.978 52.9617 777.07 51.1124 776.662 51.1124C776.516 51.1124 776.396 50.9213 776.396 50.6873C776.396 50.4536 776.038 49.927 775.599 49.5173C775.16 49.1076 774.801 48.6073 774.801 48.406C774.801 48.2045 774.562 47.8672 774.27 47.6563C773.977 47.4455 773.738 47.0866 773.738 46.8588C773.738 46.631 773.499 46.2721 773.206 46.0612C772.914 45.8504 772.675 45.4915 772.675 45.2637C772.675 45.0359 772.435 44.677 772.143 44.4661C771.85 44.2553 771.611 43.8964 771.611 43.6686C771.611 43.4407 771.372 43.0819 771.079 42.871C770.787 42.6602 770.548 42.3228 770.548 42.1213C770.548 41.9201 770.189 41.4198 769.75 41.0101C769.312 40.6004 768.953 40.0738 768.953 39.8401C768.953 39.6061 768.833 39.415 768.687 39.415C768.152 39.415 768.442 38.5454 769.219 37.8199C769.657 37.4102 770.016 36.9341 770.016 36.7618C770.016 36.5898 770.495 35.9892 771.079 35.4272C771.664 34.8652 772.143 34.2647 772.143 34.0926C772.143 33.9204 772.502 33.4442 772.94 33.0346C773.379 32.6249 773.738 32.1488 773.738 31.9765C773.738 31.8045 774.216 31.2039 774.801 30.6419C775.949 29.5392 776.224 28.3043 775.485 27.5658C775.028 27.1085 768.421 27.0019 768.421 27.4517C768.421 27.5979 768.233 27.7176 768.003 27.7176C767.491 27.7176 766.826 28.3495 766.826 28.8363C766.826 29.0338 766.587 29.3677 766.294 29.5785C766.002 29.7893 765.762 30.1267 765.762 30.3282C765.762 30.5295 765.404 31.0298 764.965 31.4395C764.526 31.8491 764.167 32.3277 764.167 32.5029C764.167 32.6781 763.808 33.1566 763.37 33.5663C762.931 33.9759 762.572 34.4481 762.572 34.6156C762.572 35.1725 761.276 36.2248 760.59 36.2248H759.914V26.5024C759.914 18.4306 759.849 16.7153 759.534 16.4C758.99 15.8561 752.751 15.8715 752.271 16.4178ZM674.908 19.8816C674.353 20.4739 674.31 20.7637 674.31 23.8532V27.1859H672.563C670.16 27.1859 670.056 27.3291 670.056 30.6419C670.056 33.9547 670.16 34.098 672.563 34.098H674.31V40.7442C674.31 44.9978 674.406 47.3905 674.576 47.3905C674.722 47.3905 674.842 47.7494 674.842 48.188C674.842 48.6267 674.961 48.9856 675.107 48.9856C675.254 48.9856 675.373 49.2249 675.373 49.5173C675.373 49.8097 675.493 50.049 675.639 50.049C675.785 50.049 675.905 50.2324 675.905 50.4565C675.905 50.9859 677.627 52.7075 678.156 52.7075C678.38 52.7075 678.563 52.8271 678.563 52.9734C678.563 53.1196 678.803 53.2392 679.095 53.2392C679.388 53.2392 679.627 53.3588 679.627 53.5051C679.627 53.6513 680.105 53.7709 680.69 53.7709C681.275 53.7709 681.754 53.8905 681.754 54.0368C681.754 54.1846 682.463 54.3026 683.349 54.3026C684.235 54.3026 684.944 54.1846 684.944 54.0368C684.944 53.8905 685.542 53.7709 686.273 53.7709C687.004 53.7709 687.602 53.6513 687.602 53.5051C687.602 53.3588 687.935 53.2392 688.341 53.2392C688.775 53.2392 689.238 53.0196 689.463 52.7075C689.674 52.4151 690.005 52.1758 690.199 52.1758C690.392 52.1758 690.844 51.882 691.203 51.5231C692.03 50.6963 692.092 49.273 691.324 48.7197C691.032 48.5089 690.793 48.15 690.793 47.9222C690.793 47.6944 690.553 47.3355 690.261 47.1246C689.968 46.9138 689.729 46.5286 689.729 46.2683C689.729 45.9794 689.531 45.7954 689.22 45.7954C688.939 45.7954 688.64 45.6457 688.555 45.4631C688.431 45.1972 688.369 45.1972 688.245 45.4631C688.16 45.6457 687.741 45.7954 687.314 45.7954C686.888 45.7954 686.539 45.915 686.539 46.0612C686.539 46.4837 683.634 46.3845 683.197 45.9472C682.891 45.6417 682.817 44.4483 682.817 39.8326V34.098H686.805C690.615 34.098 690.793 34.0743 690.793 33.5663C690.793 33.2738 690.912 33.0346 691.058 33.0346C691.213 33.0346 691.324 32.1485 691.324 30.9078C691.324 29.667 691.213 28.781 691.058 28.781C690.912 28.781 690.793 28.593 690.793 28.3633C690.793 27.3568 690.158 27.1859 686.425 27.1859H682.817V23.8508C682.817 20.664 682.788 20.4864 682.164 19.863C681.546 19.2446 681.354 19.2111 678.509 19.2266C675.692 19.242 675.469 19.2824 674.908 19.8816ZM568.501 26.92C568.501 27.0662 568.142 27.1859 567.704 27.1859C567.265 27.1859 566.906 27.3055 566.906 27.4517C566.906 27.5979 566.667 27.7176 566.375 27.7176C566.082 27.7176 565.843 27.8372 565.843 27.9834C565.843 28.1296 565.63 28.2493 565.37 28.2493C565.11 28.2493 564.724 28.4885 564.514 28.781C564.056 29.4163 563.716 29.4676 563.716 28.9019C563.716 28.6759 563.422 28.1974 563.063 27.8385C562.449 27.2239 562.239 27.1859 559.456 27.1859C557.249 27.1859 556.404 27.2821 556.12 27.5658C555.551 28.1349 555.551 63.9875 556.12 64.5567C556.666 65.1025 562.791 65.1025 563.336 64.5567C563.644 64.2491 563.716 62.9871 563.716 57.9105C563.716 54.464 563.788 51.6441 563.875 51.6441C563.963 51.6441 564.37 52.003 564.779 52.4416C565.238 52.9321 565.79 53.2392 566.215 53.2392C566.595 53.2392 566.906 53.3588 566.906 53.5051C566.906 53.6513 567.265 53.7709 567.704 53.7709C568.142 53.7709 568.501 53.8905 568.501 54.0368C568.501 54.1944 569.476 54.3026 570.894 54.3026C572.312 54.3026 573.287 54.1944 573.287 54.0368C573.287 53.8905 573.765 53.7709 574.35 53.7709C574.935 53.7709 575.413 53.6513 575.413 53.5051C575.413 53.3588 575.653 53.2392 575.945 53.2392C576.238 53.2392 576.477 53.1196 576.477 52.9734C576.477 52.8271 576.716 52.7075 577.009 52.7075C577.301 52.7075 577.54 52.5879 577.54 52.4416C577.54 52.2954 577.722 52.1758 577.944 52.1758C578.47 52.1758 581.794 48.8516 581.794 48.326C581.794 48.1038 581.914 47.9222 582.06 47.9222C582.206 47.9222 582.326 47.6829 582.326 47.3905C582.326 47.0981 582.445 46.8588 582.591 46.8588C582.738 46.8588 582.857 46.6195 582.857 46.3271C582.857 46.0347 582.977 45.7954 583.123 45.7954C583.269 45.7954 583.389 45.3169 583.389 44.732C583.389 44.1471 583.509 43.6686 583.655 43.6686C583.817 43.6686 583.921 42.4279 583.921 40.4784C583.921 38.5289 583.817 37.2882 583.655 37.2882C583.509 37.2882 583.389 36.8096 583.389 36.2248C583.389 35.6399 583.269 35.1614 583.123 35.1614C582.977 35.1614 582.857 34.9221 582.857 34.6297C582.857 34.3372 582.738 34.098 582.591 34.098C582.445 34.098 582.326 33.8587 582.326 33.5663C582.326 33.2738 582.206 33.0346 582.06 33.0346C581.914 33.0346 581.794 32.853 581.794 32.6307C581.794 32.1397 578.486 28.781 578.003 28.781C577.813 28.781 577.485 28.5417 577.274 28.2493C577.049 27.9371 576.586 27.7176 576.152 27.7176C575.746 27.7176 575.413 27.5979 575.413 27.4517C575.413 27.3055 575.055 27.1859 574.616 27.1859C574.177 27.1859 573.818 27.0662 573.818 26.92C573.818 26.7605 572.755 26.6542 571.16 26.6542C569.565 26.6542 568.501 26.7605 568.501 26.92ZM596.15 26.92C596.15 27.0662 595.791 27.1859 595.352 27.1859C594.914 27.1859 594.555 27.3055 594.555 27.4517C594.555 27.5979 594.315 27.7176 594.023 27.7176C593.731 27.7176 593.491 27.8372 593.491 27.9834C593.491 28.1296 593.252 28.2493 592.96 28.2493C592.667 28.2493 592.428 28.3689 592.428 28.5151C592.428 28.6613 592.246 28.781 592.024 28.781C591.499 28.781 588.174 32.1052 588.174 32.6307C588.174 32.853 588.055 33.0346 587.908 33.0346C587.762 33.0346 587.643 33.2738 587.643 33.5663C587.643 33.8587 587.523 34.098 587.377 34.098C587.231 34.098 587.111 34.3372 587.111 34.6297C587.111 34.9221 586.991 35.1614 586.845 35.1614C586.699 35.1614 586.579 35.5203 586.579 35.9589C586.579 36.3976 586.46 36.7565 586.313 36.7565C586.15 36.7565 586.048 38.0857 586.048 40.2125C586.048 42.3393 586.15 43.6686 586.313 43.6686C586.46 43.6686 586.579 44.1471 586.579 44.732C586.579 45.3169 586.699 45.7954 586.845 45.7954C586.991 45.7954 587.111 46.0347 587.111 46.3271C587.111 46.6195 587.231 46.8588 587.377 46.8588C587.523 46.8588 587.643 47.0981 587.643 47.3905C587.643 47.6829 587.762 47.9222 587.908 47.9222C588.055 47.9222 588.174 48.1038 588.174 48.326C588.174 48.8516 591.499 52.1758 592.024 52.1758C592.246 52.1758 592.428 52.2954 592.428 52.4416C592.428 52.5879 592.667 52.7075 592.96 52.7075C593.252 52.7075 593.491 52.8271 593.491 52.9734C593.491 53.1196 593.731 53.2392 594.023 53.2392C594.315 53.2392 594.555 53.3588 594.555 53.5051C594.555 53.6513 594.914 53.7709 595.352 53.7709C595.791 53.7709 596.15 53.8905 596.15 54.0368C596.15 54.1963 597.213 54.3026 598.808 54.3026C600.403 54.3026 601.467 54.1963 601.467 54.0368C601.467 53.8905 601.826 53.7709 602.264 53.7709C602.703 53.7709 603.062 53.6513 603.062 53.5051C603.062 53.3588 603.301 53.2392 603.594 53.2392C603.886 53.2392 604.125 53.1196 604.125 52.9734C604.125 52.8271 604.338 52.7075 604.598 52.7075C604.859 52.7075 605.244 52.4682 605.455 52.1758C605.912 51.5404 606.252 51.4891 606.252 52.0548C606.252 52.2808 606.546 52.7593 606.905 53.1182C607.515 53.7286 607.739 53.7709 610.361 53.7709C612.052 53.7709 613.164 53.6654 613.164 53.5051C613.164 53.3588 613.404 53.2392 613.696 53.2392C614.22 53.2392 614.228 53.0619 614.228 40.5924C614.228 29.9861 614.166 27.8842 613.848 27.5658C613.392 27.1098 607.316 27.0037 607.316 27.4517C607.316 27.5979 607.076 27.7176 606.784 27.7176C606.37 27.7176 606.252 27.8949 606.252 28.5151C606.252 28.9538 606.181 29.3127 606.093 29.3127C606.005 29.3127 605.598 28.9538 605.189 28.5151C604.779 28.0765 604.252 27.7176 604.019 27.7176C603.785 27.7176 603.594 27.5979 603.594 27.4517C603.594 27.3055 603.235 27.1859 602.796 27.1859C602.357 27.1859 601.999 27.0662 601.999 26.92C601.999 26.7589 600.847 26.6542 599.074 26.6542C597.302 26.6542 596.15 26.7589 596.15 26.92ZM653.574 26.92C653.574 27.0662 653.215 27.1859 652.776 27.1859C652.337 27.1859 651.978 27.3055 651.978 27.4517C651.978 27.5979 651.62 27.7176 651.181 27.7176C650.742 27.7176 650.383 27.8372 650.383 27.9834C650.383 28.1296 650.202 28.2493 649.98 28.2493C649.276 28.2493 646.13 31.6128 646.13 32.3649C646.13 32.7334 646.01 33.0346 645.864 33.0346C645.706 33.0346 645.598 34.0094 645.598 35.4272C645.598 36.845 645.706 37.8199 645.864 37.8199C646.01 37.8199 646.13 38.0591 646.13 38.3516C646.13 38.644 646.249 38.8833 646.396 38.8833C646.542 38.8833 646.661 39.0667 646.661 39.2908C646.661 39.8201 648.383 41.5418 648.912 41.5418C649.136 41.5418 649.32 41.6614 649.32 41.8076C649.32 41.9538 649.559 42.0735 649.852 42.0735C650.144 42.0735 650.383 42.1931 650.383 42.3393C650.383 42.4855 650.742 42.6052 651.181 42.6052C651.62 42.6052 651.978 42.7248 651.978 42.871C651.978 43.0172 652.457 43.1369 653.042 43.1369C653.627 43.1369 654.105 43.2565 654.105 43.4027C654.105 43.549 654.703 43.6686 655.434 43.6686C656.166 43.6686 656.764 43.7882 656.764 43.9344C656.764 44.0807 657.123 44.2003 657.561 44.2003C658 44.2003 658.359 44.3199 658.359 44.4661C658.359 44.6124 658.666 44.732 659.042 44.732C659.875 44.732 660.486 45.2945 660.486 46.0612C660.486 46.7304 659.901 47.3905 659.308 47.3905C659.078 47.3905 658.891 47.5101 658.891 47.6563C658.891 47.8113 658.004 47.9222 656.764 47.9222C655.523 47.9222 654.637 47.8113 654.637 47.6563C654.637 47.5101 654.398 47.3905 654.105 47.3905C653.813 47.3905 653.574 47.2709 653.574 47.1246C653.574 46.9784 653.361 46.8588 653.101 46.8588C652.84 46.8588 652.455 46.6195 652.244 46.3271C652.033 46.0347 651.675 45.7954 651.447 45.7954C651.219 45.7954 650.86 45.5561 650.649 45.2637C650.254 44.7158 648.788 44.5065 648.788 44.9978C648.788 45.1441 648.597 45.2637 648.363 45.2637C648.129 45.2637 647.603 45.6226 647.193 46.0612C646.783 46.4999 646.308 46.8588 646.137 46.8588C645.519 46.8588 645.066 47.6404 645.066 48.7096C645.066 49.6002 645.236 49.9703 645.988 50.7224C646.495 51.2294 647.093 51.6441 647.317 51.6441C647.541 51.6441 647.725 51.7637 647.725 51.9099C647.725 52.0562 647.964 52.1758 648.257 52.1758C648.549 52.1758 648.788 52.2954 648.788 52.4416C648.788 52.5879 649.027 52.7075 649.32 52.7075C649.612 52.7075 649.852 52.8271 649.852 52.9734C649.852 53.1196 650.211 53.2392 650.649 53.2392C651.088 53.2392 651.447 53.3588 651.447 53.5051C651.447 53.6513 651.925 53.7709 652.51 53.7709C653.095 53.7709 653.574 53.8905 653.574 54.0368C653.574 54.1992 654.814 54.3026 656.764 54.3026C658.713 54.3026 659.954 54.1992 659.954 54.0368C659.954 53.8905 660.432 53.7709 661.017 53.7709C661.602 53.7709 662.081 53.6513 662.081 53.5051C662.081 53.3588 662.44 53.2392 662.878 53.2392C663.317 53.2392 663.676 53.1196 663.676 52.9734C663.676 52.8271 663.867 52.7075 664.101 52.7075C664.335 52.7075 664.861 52.3486 665.271 51.9099C665.681 51.4713 666.207 51.1124 666.441 51.1124C666.675 51.1124 666.866 50.8994 666.866 50.6394C666.866 50.3792 667.105 49.994 667.398 49.7831C667.69 49.5723 667.929 49.1871 667.929 48.9268C667.929 48.6668 668.049 48.4539 668.195 48.4539C668.342 48.4539 668.461 47.9754 668.461 47.3905C668.461 46.8056 668.581 46.3271 668.727 46.3271C668.873 46.3271 668.993 45.8486 668.993 45.2637C668.993 44.6788 668.873 44.2003 668.727 44.2003C668.581 44.2003 668.461 43.7481 668.461 43.1956C668.461 42.4959 668.3 42.0745 667.929 41.8076C667.637 41.5968 667.398 41.2658 667.398 41.0723C667.398 40.6158 666.197 39.415 665.74 39.415C665.547 39.415 665.216 39.1757 665.005 38.8833C664.78 38.5712 664.317 38.3516 663.883 38.3516C663.477 38.3516 663.144 38.2319 663.144 38.0857C663.144 37.9395 662.785 37.8199 662.347 37.8199C661.908 37.8199 661.549 37.7002 661.549 37.554C661.549 37.4078 660.951 37.2882 660.22 37.2882C659.489 37.2882 658.891 37.1685 658.891 37.0223C658.891 36.8761 658.292 36.7565 657.561 36.7565C656.83 36.7565 656.232 36.6368 656.232 36.4906C656.232 36.3444 655.928 36.2248 655.555 36.2248C654.874 36.2248 653.574 35.1739 653.574 34.6228C653.574 34.1889 654.267 33.5663 654.751 33.5663C654.981 33.5663 655.169 33.4466 655.169 33.3004C655.169 33.1486 655.966 33.0346 657.03 33.0346C658.093 33.0346 658.891 33.1486 658.891 33.3004C658.891 33.4466 659.249 33.5663 659.688 33.5663C660.127 33.5663 660.486 33.6859 660.486 33.8321C660.486 33.9783 660.699 34.098 660.959 34.098C661.219 34.098 661.604 34.3372 661.815 34.6297C662.04 34.9418 662.503 35.1614 662.937 35.1614C663.343 35.1614 663.676 35.281 663.676 35.4272C663.676 36.0977 664.625 35.5508 666.206 33.9701C667.577 32.5996 667.929 32.0802 667.929 31.4323C667.929 30.5523 666.926 29.3127 666.213 29.3127C665.987 29.3127 665.803 29.193 665.803 29.0468C665.803 28.9006 665.563 28.781 665.271 28.781C664.979 28.781 664.739 28.6613 664.739 28.5151C664.739 28.3689 664.5 28.2493 664.208 28.2493C663.915 28.2493 663.676 28.1296 663.676 27.9834C663.676 27.8372 663.437 27.7176 663.144 27.7176C662.852 27.7176 662.612 27.5979 662.612 27.4517C662.612 27.3055 662.134 27.1859 661.549 27.1859C660.964 27.1859 660.486 27.0662 660.486 26.92C660.486 26.7565 659.156 26.6542 657.03 26.6542C654.903 26.6542 653.574 26.7565 653.574 26.92ZM702.49 26.92C702.49 27.0662 702.011 27.1859 701.427 27.1859C700.842 27.1859 700.363 27.3055 700.363 27.4517C700.363 27.5979 700.124 27.7176 699.832 27.7176C699.539 27.7176 699.3 27.8372 699.3 27.9834C699.3 28.1296 699.087 28.2493 698.827 28.2493C698.567 28.2493 698.181 28.4885 697.971 28.781C697.76 29.0734 697.43 29.3127 697.238 29.3127C696.811 29.3127 695.046 31.0394 695.046 31.4567C695.046 31.6224 694.687 32.0932 694.249 32.5029C693.758 32.9609 693.451 33.5139 693.451 33.9387C693.451 34.3189 693.331 34.6297 693.185 34.6297C693.039 34.6297 692.919 34.8689 692.919 35.1614C692.919 35.4538 692.8 35.6931 692.654 35.6931C692.507 35.6931 692.388 36.2912 692.388 37.0223C692.388 37.7534 692.268 38.3516 692.122 38.3516C691.967 38.3516 691.856 39.2377 691.856 40.4784C691.856 41.7191 691.967 42.6052 692.122 42.6052C692.268 42.6052 692.388 43.2033 692.388 43.9344C692.388 44.6655 692.507 45.2637 692.654 45.2637C692.8 45.2637 692.919 45.503 692.919 45.7954C692.919 46.0878 693.039 46.3271 693.185 46.3271C693.331 46.3271 693.451 46.5664 693.451 46.8588C693.451 47.1512 693.571 47.3905 693.717 47.3905C693.863 47.3905 693.983 47.6034 693.983 47.8634C693.983 48.1237 694.222 48.5089 694.515 48.7197C694.807 48.9306 695.046 49.2615 695.046 49.4551C695.046 49.8868 696.236 51.1124 696.655 51.1124C696.823 51.1124 697.295 51.4713 697.705 51.9099C698.114 52.3486 698.641 52.7075 698.875 52.7075C699.109 52.7075 699.3 52.8271 699.3 52.9734C699.3 53.1196 699.659 53.2392 700.097 53.2392C700.536 53.2392 700.895 53.3588 700.895 53.5051C700.895 53.6513 701.254 53.7709 701.692 53.7709C702.131 53.7709 702.49 53.8905 702.49 54.0368C702.49 54.1963 703.553 54.3026 705.149 54.3026C706.744 54.3026 707.807 54.1963 707.807 54.0368C707.807 53.8905 708.166 53.7709 708.605 53.7709C709.043 53.7709 709.402 53.6513 709.402 53.5051C709.402 53.3588 709.593 53.2392 709.827 53.2392C710.061 53.2392 710.597 52.8697 711.019 52.4183C711.704 51.6845 711.829 51.6401 712.189 52.0006C712.411 52.2223 712.592 52.5916 712.592 52.8215C712.592 53.0619 712.818 53.2392 713.124 53.2392C713.416 53.2392 713.656 53.3588 713.656 53.5051C713.656 53.6654 714.768 53.7709 716.459 53.7709C719.081 53.7709 719.305 53.7286 719.915 53.1182L720.568 52.4658V40.4784V28.4909L719.915 27.8385C719.301 27.2239 719.091 27.1859 716.307 27.1859C713.087 27.1859 712.592 27.3781 712.592 28.6292C712.592 29.0051 712.473 29.3127 712.326 29.3127C712.18 29.3127 712.061 29.193 712.061 29.0468C712.061 28.9006 711.848 28.781 711.588 28.781C711.327 28.781 710.942 28.5417 710.731 28.2493C710.521 27.9568 710.135 27.7176 709.875 27.7176C709.615 27.7176 709.402 27.5979 709.402 27.4517C709.402 27.3055 709.043 27.1859 708.605 27.1859C708.166 27.1859 707.807 27.0662 707.807 26.92C707.807 26.7605 706.744 26.6542 705.149 26.6542C703.553 26.6542 702.49 26.7605 702.49 26.92ZM734.392 26.92C734.392 27.0662 733.914 27.1859 733.329 27.1859C732.744 27.1859 732.265 27.3055 732.265 27.4517C732.265 27.5979 732.026 27.7176 731.734 27.7176C731.441 27.7176 731.202 27.8372 731.202 27.9834C731.202 28.1296 730.963 28.2493 730.67 28.2493C730.378 28.2493 730.138 28.3689 730.138 28.5151C730.138 28.6613 729.926 28.781 729.666 28.781C729.405 28.781 729.02 29.0202 728.809 29.3127C728.598 29.6051 728.269 29.8444 728.077 29.8444C727.624 29.8444 725.885 31.583 725.885 32.0366C725.885 32.2285 725.646 32.5579 725.353 32.7687C725.061 32.9795 724.821 33.3648 724.821 33.625C724.821 33.885 724.702 34.098 724.556 34.098C724.409 34.098 724.29 34.3372 724.29 34.6297C724.29 34.9221 724.17 35.1614 724.024 35.1614C723.878 35.1614 723.758 35.5203 723.758 35.9589C723.758 36.3976 723.638 36.7565 723.492 36.7565C723.328 36.7565 723.226 38.1743 723.226 40.4784C723.226 42.7825 723.328 44.2003 723.492 44.2003C723.638 44.2003 723.758 44.5592 723.758 44.9978C723.758 45.4365 723.878 45.7954 724.024 45.7954C724.17 45.7954 724.29 46.0347 724.29 46.3271C724.29 46.6195 724.409 46.8588 724.556 46.8588C724.702 46.8588 724.821 47.0717 724.821 47.3317C724.821 47.592 725.061 47.9772 725.353 48.188C725.646 48.3989 725.885 48.7282 725.885 48.9202C725.885 49.3737 727.624 51.1124 728.077 51.1124C728.269 51.1124 728.598 51.3517 728.809 51.6441C729.02 51.9365 729.405 52.1758 729.666 52.1758C729.926 52.1758 730.138 52.2954 730.138 52.4416C730.138 52.5879 730.378 52.7075 730.67 52.7075C730.963 52.7075 731.202 52.8271 731.202 52.9734C731.202 53.1196 731.441 53.2392 731.734 53.2392C732.026 53.2392 732.265 53.3588 732.265 53.5051C732.265 53.6513 732.744 53.7709 733.329 53.7709C733.914 53.7709 734.392 53.8905 734.392 54.0368C734.392 54.1979 735.544 54.3026 737.316 54.3026C739.089 54.3026 740.241 54.1979 740.241 54.0368C740.241 53.8905 740.6 53.7709 741.038 53.7709C741.477 53.7709 741.836 53.6513 741.836 53.5051C741.836 53.3588 742.195 53.2392 742.633 53.2392C743.072 53.2392 743.431 53.1196 743.431 52.9734C743.431 52.8271 743.67 52.7075 743.963 52.7075C744.255 52.7075 744.494 52.5879 744.494 52.4416C744.494 52.2954 744.676 52.1758 744.898 52.1758C745.424 52.1758 748.748 48.8516 748.748 48.326C748.748 48.1038 748.868 47.9222 749.014 47.9222C749.16 47.9222 749.28 47.6829 749.28 47.3905C749.28 47.0981 749.16 46.8588 749.014 46.8588C748.868 46.8588 748.748 46.6708 748.748 46.4411C748.748 45.9506 748.123 45.2637 747.677 45.2637C747.506 45.2637 747.031 44.9048 746.621 44.4661C746.212 44.0275 745.685 43.6686 745.451 43.6686C745.217 43.6686 745.026 43.549 745.026 43.4027C745.026 43.2565 744.667 43.1369 744.229 43.1369C743.79 43.1369 743.431 43.2565 743.431 43.4027C743.431 43.549 743.244 43.6686 743.015 43.6686C742.786 43.6686 742.016 44.2667 741.304 44.9978C740.415 45.911 739.796 46.3271 739.328 46.3271C738.952 46.3271 738.646 46.4467 738.646 46.5929C738.646 46.7392 738.048 46.8588 737.316 46.8588C736.585 46.8588 735.987 46.7392 735.987 46.5929C735.987 46.4467 735.685 46.3271 735.317 46.3271C734.389 46.3271 731.734 43.6712 731.734 42.744C731.734 42.3752 731.614 42.0735 731.468 42.0735C731.32 42.0735 731.202 41.3645 731.202 40.4784C731.202 39.5923 731.32 38.8833 731.468 38.8833C731.614 38.8833 731.734 38.5244 731.734 38.0857C731.734 37.6471 731.853 37.2882 731.999 37.2882C732.146 37.2882 732.265 37.1034 732.265 36.8774C732.265 36.3455 733.449 35.1614 733.981 35.1614C734.207 35.1614 734.392 35.0417 734.392 34.8955C734.392 34.7493 734.631 34.6297 734.924 34.6297C735.216 34.6297 735.455 34.51 735.455 34.3638C735.455 34.212 736.253 34.098 737.316 34.098C738.38 34.098 739.177 34.212 739.177 34.3638C739.177 34.51 739.39 34.6297 739.65 34.6297C739.911 34.6297 740.296 34.8689 740.507 35.1614C740.717 35.4538 741.051 35.6931 741.249 35.6931C741.736 35.6931 742.368 36.358 742.368 36.8705C742.368 37.1108 742.593 37.2882 742.899 37.2882C743.192 37.2882 743.431 37.4078 743.431 37.554C743.431 38.0453 744.897 37.8361 745.292 37.2882C745.503 36.9957 745.84 36.7565 746.042 36.7565C746.243 36.7565 746.743 36.3976 747.153 35.9589C747.563 35.5203 748.089 35.1614 748.323 35.1614C748.571 35.1614 748.748 34.9396 748.748 34.6297C748.748 34.3372 748.868 34.098 749.014 34.098C749.16 34.098 749.28 33.8587 749.28 33.5663C749.28 33.2738 749.16 33.0346 749.014 33.0346C748.868 33.0346 748.748 32.853 748.748 32.6307C748.748 32.1052 745.424 28.781 744.898 28.781C744.676 28.781 744.494 28.6613 744.494 28.5151C744.494 28.3689 744.255 28.2493 743.963 28.2493C743.67 28.2493 743.431 28.1296 743.431 27.9834C743.431 27.8372 743.192 27.7176 742.899 27.7176C742.607 27.7176 742.368 27.5979 742.368 27.4517C742.368 27.3055 741.889 27.1859 741.304 27.1859C740.719 27.1859 740.241 27.0662 740.241 26.92C740.241 26.7589 739.089 26.6542 737.316 26.6542C735.544 26.6542 734.392 26.7589 734.392 26.92ZM616.687 27.5836C616.293 28.0307 616.236 30.9078 616.62 30.9078C616.767 30.9078 616.886 31.147 616.886 31.4395C616.886 31.7319 617.006 31.9712 617.152 31.9712C617.298 31.9712 617.418 32.4497 617.418 33.0346C617.418 33.6194 617.538 34.098 617.684 34.098C617.83 34.098 617.95 34.3372 617.95 34.6297C617.95 34.9221 618.069 35.1614 618.215 35.1614C618.362 35.1614 618.481 35.6399 618.481 36.2248C618.481 36.8096 618.601 37.2882 618.747 37.2882C618.893 37.2882 619.013 37.5274 619.013 37.8199C619.013 38.1123 619.133 38.3516 619.279 38.3516C619.425 38.3516 619.545 38.8301 619.545 39.415C619.545 39.9998 619.664 40.4784 619.811 40.4784C619.957 40.4784 620.076 40.7176 620.076 41.0101C620.076 41.3025 620.196 41.5418 620.342 41.5418C620.488 41.5418 620.608 42.0203 620.608 42.6052C620.608 43.1901 620.728 43.6686 620.874 43.6686C621.02 43.6686 621.14 43.9078 621.14 44.2003C621.14 44.4927 621.259 44.732 621.406 44.732C621.552 44.732 621.671 45.2105 621.671 45.7954C621.671 46.3803 621.791 46.8588 621.937 46.8588C622.084 46.8588 622.203 47.0981 622.203 47.3905C622.203 47.6829 622.323 47.9222 622.469 47.9222C622.615 47.9222 622.735 48.4007 622.735 48.9856C622.735 49.5705 622.855 50.049 623.001 50.049C623.147 50.049 623.267 50.2883 623.267 50.5807C623.267 50.8731 623.386 51.1124 623.532 51.1124C623.679 51.1124 623.798 51.4168 623.798 51.789C623.798 52.1612 624.092 52.7593 624.451 53.1182C625.011 53.6784 625.35 53.7709 626.844 53.7709C628.406 53.7709 628.584 53.8251 628.584 54.3026C628.584 54.595 628.464 54.8343 628.318 54.8343C628.172 54.8343 628.052 55.1932 628.052 55.6319C628.052 56.0705 627.932 56.4294 627.786 56.4294C627.64 56.4294 627.52 56.6142 627.52 56.8401C627.52 57.0661 627.226 57.5446 626.868 57.9035C626.312 58.4589 625.964 58.5562 624.534 58.5562C623.157 58.5562 622.783 58.4597 622.469 58.0245C622.249 57.719 621.781 57.4928 621.369 57.4928C620.975 57.4928 620.583 57.3434 620.497 57.1605C620.373 56.8946 620.311 56.8946 620.187 57.1605C620.102 57.3431 619.803 57.4928 619.523 57.4928C619.233 57.4928 619.013 57.6762 619.013 57.9179C619.013 58.1516 618.654 58.6782 618.215 59.0879C617.777 59.4976 617.418 60.0242 617.418 60.2579C617.418 60.4919 617.298 60.683 617.152 60.683C617.006 60.683 616.886 61.1057 616.886 61.6223C616.886 62.3398 617.104 62.7795 617.808 63.4832C618.315 63.9902 618.913 64.4049 619.137 64.4049C619.361 64.4049 619.545 64.5246 619.545 64.6708C619.545 64.817 619.904 64.9366 620.342 64.9366C620.781 64.9366 621.14 65.0563 621.14 65.2025C621.14 65.3503 621.849 65.4683 622.735 65.4683C623.621 65.4683 624.33 65.5864 624.33 65.7342C624.33 65.8804 624.809 66 625.393 66C625.978 66 626.457 65.8804 626.457 65.7342C626.457 65.588 627.055 65.4683 627.786 65.4683C628.517 65.4683 629.115 65.3487 629.115 65.2025C629.115 65.0563 629.448 64.9366 629.854 64.9366C630.288 64.9366 630.751 64.717 630.976 64.4049C631.187 64.1125 631.518 63.8732 631.712 63.8732C632.143 63.8732 633.369 62.683 633.369 62.264C633.369 62.0965 633.728 61.6244 634.166 61.2147C634.605 60.805 634.964 60.2784 634.964 60.0447C634.964 59.8108 635.084 59.6196 635.23 59.6196C635.376 59.6196 635.496 59.2607 635.496 58.8221C635.496 58.3834 635.615 58.0245 635.762 58.0245C635.908 58.0245 636.027 57.6656 636.027 57.227C636.027 56.7883 636.147 56.4294 636.293 56.4294C636.439 56.4294 636.559 56.0705 636.559 55.6319C636.559 55.1932 636.679 54.8343 636.825 54.8343C636.971 54.8343 637.091 54.3558 637.091 53.7709C637.091 53.186 637.21 52.7075 637.357 52.7075C637.503 52.7075 637.623 52.3486 637.623 51.9099C637.623 51.4713 637.742 51.1124 637.888 51.1124C638.035 51.1124 638.154 50.7535 638.154 50.3148C638.154 49.8762 638.274 49.5173 638.42 49.5173C638.566 49.5173 638.686 49.1584 638.686 48.7197C638.686 48.2811 638.806 47.9222 638.952 47.9222C639.098 47.9222 639.218 47.4437 639.218 46.8588C639.218 46.2739 639.337 45.7954 639.483 45.7954C639.63 45.7954 639.749 45.4365 639.749 44.9978C639.749 44.5592 639.869 44.2003 640.015 44.2003C640.161 44.2003 640.281 43.8414 640.281 43.4027C640.281 42.9641 640.401 42.6052 640.547 42.6052C640.693 42.6052 640.813 42.2463 640.813 41.8076C640.813 41.369 640.932 41.0101 641.079 41.0101C641.225 41.0101 641.344 40.6512 641.344 40.2125C641.344 39.7739 641.464 39.415 641.61 39.415C641.756 39.415 641.876 38.9364 641.876 38.3516C641.876 37.7667 641.996 37.2882 642.142 37.2882C642.288 37.2882 642.408 36.9293 642.408 36.4906C642.408 36.052 642.527 35.6931 642.674 35.6931C642.82 35.6931 642.94 35.3342 642.94 34.8955C642.94 34.4569 643.059 34.098 643.205 34.098C643.352 34.098 643.471 33.7391 643.471 33.3004C643.471 32.8618 643.591 32.5029 643.737 32.5029C643.883 32.5029 644.003 32.144 644.003 31.7053C644.003 31.2667 644.123 30.9078 644.269 30.9078C644.691 30.9078 644.592 28.0028 644.155 27.5658C643.864 27.2749 642.955 27.1859 640.281 27.1859C636.667 27.1859 636.027 27.3629 636.027 28.3633C636.027 28.593 635.908 28.781 635.762 28.781C635.615 28.781 635.496 29.2595 635.496 29.8444C635.496 30.4292 635.376 30.9078 635.23 30.9078C635.084 30.9078 634.964 31.2667 634.964 31.7053C634.964 32.144 634.844 32.5029 634.698 32.5029C634.552 32.5029 634.432 32.9814 634.432 33.5663C634.432 34.1511 634.313 34.6297 634.166 34.6297C634.02 34.6297 633.901 34.9886 633.901 35.4272C633.901 35.8659 633.781 36.2248 633.635 36.2248C633.489 36.2248 633.369 36.7033 633.369 37.2882C633.369 37.873 633.249 38.3516 633.103 38.3516C632.957 38.3516 632.837 38.8301 632.837 39.415C632.837 39.9998 632.718 40.4784 632.571 40.4784C632.425 40.4784 632.305 40.8373 632.305 41.2759C632.305 41.7146 632.186 42.0735 632.04 42.0735C631.893 42.0735 631.774 42.552 631.774 43.1369C631.774 43.7218 631.654 44.2003 631.508 44.2003C631.362 44.2003 631.242 44.4395 631.242 44.732C631.242 45.0864 631.065 45.2637 630.71 45.2637C630.356 45.2637 630.179 45.0864 630.179 44.732C630.179 44.4395 630.059 44.2003 629.913 44.2003C629.767 44.2003 629.647 43.8414 629.647 43.4027C629.647 42.9641 629.527 42.6052 629.381 42.6052C629.235 42.6052 629.115 42.1267 629.115 41.5418C629.115 40.9569 628.996 40.4784 628.849 40.4784C628.703 40.4784 628.584 40.1195 628.584 39.6808C628.584 39.2422 628.464 38.8833 628.318 38.8833C628.172 38.8833 628.052 38.5244 628.052 38.0857C628.052 37.6471 627.932 37.2882 627.786 37.2882C627.64 37.2882 627.52 36.8096 627.52 36.2248C627.52 35.6399 627.401 35.1614 627.254 35.1614C627.108 35.1614 626.988 34.8025 626.988 34.3638C626.988 33.9252 626.869 33.5663 626.723 33.5663C626.576 33.5663 626.457 33.0877 626.457 32.5029C626.457 31.918 626.337 31.4395 626.191 31.4395C626.045 31.4395 625.925 31.0806 625.925 30.6419C625.925 30.2033 625.805 29.8444 625.659 29.8444C625.513 29.8444 625.393 29.54 625.393 29.1678C625.393 28.7956 625.1 28.1974 624.741 27.8385C624.112 27.2098 623.959 27.1861 620.554 27.196C617.844 27.2037 616.941 27.2941 616.687 27.5836ZM571.16 34.3638C571.16 34.51 571.462 34.6297 571.83 34.6297C572.288 34.6297 572.963 35.0914 573.957 36.086C575.17 37.2993 575.413 37.6989 575.413 38.4786C575.413 38.9936 575.533 39.415 575.679 39.415C575.826 39.415 575.945 39.8935 575.945 40.4784C575.945 41.0632 575.826 41.5418 575.679 41.5418C575.533 41.5418 575.413 41.9007 575.413 42.3393C575.413 42.778 575.294 43.1369 575.148 43.1369C575.001 43.1369 574.882 43.3195 574.882 43.5426C574.882 44.2282 572.582 46.3271 571.831 46.3271C571.462 46.3271 571.16 46.4467 571.16 46.5929C571.16 46.7408 570.451 46.8588 569.565 46.8588C568.679 46.8588 567.97 46.7408 567.97 46.5929C567.97 46.4467 567.73 46.3271 567.438 46.3271C567.146 46.3271 566.906 46.2075 566.906 46.0612C566.906 45.915 566.721 45.7954 566.496 45.7954C565.964 45.7954 564.779 44.6113 564.779 44.0793C564.779 43.8533 564.66 43.6686 564.514 43.6686C564.367 43.6686 564.248 43.4293 564.248 43.1369C564.248 42.8444 564.128 42.6052 563.982 42.6052C563.827 42.6052 563.716 41.7191 563.716 40.4784C563.716 39.2377 563.827 38.3516 563.982 38.3516C564.128 38.3516 564.248 38.1123 564.248 37.8199C564.248 37.5274 564.367 37.2882 564.514 37.2882C564.66 37.2882 564.779 37.1034 564.779 36.8774C564.779 36.3455 565.964 35.1614 566.496 35.1614C566.721 35.1614 566.906 35.0417 566.906 34.8955C566.906 34.7493 567.146 34.6297 567.438 34.6297C567.73 34.6297 567.97 34.51 567.97 34.3638C567.97 34.216 568.679 34.098 569.565 34.098C570.451 34.098 571.16 34.216 571.16 34.3638ZM601.467 34.3638C601.467 34.51 601.799 34.6297 602.206 34.6297C602.64 34.6297 603.103 34.8493 603.328 35.1614C603.539 35.4538 603.924 35.6931 604.184 35.6931C604.46 35.6931 604.657 35.8898 604.657 36.166C604.657 36.4263 604.896 36.8115 605.189 37.0223C605.481 37.2331 605.72 37.6184 605.72 37.8786C605.72 38.1386 605.84 38.3516 605.986 38.3516C606.141 38.3516 606.252 39.2377 606.252 40.4784C606.252 41.7191 606.141 42.6052 605.986 42.6052C605.84 42.6052 605.72 42.8181 605.72 43.0781C605.72 43.3384 605.481 43.7236 605.189 43.9344C604.896 44.1453 604.657 44.5305 604.657 44.7907C604.657 45.067 604.46 45.2637 604.184 45.2637C603.924 45.2637 603.539 45.503 603.328 45.7954C603.117 46.0878 602.732 46.3271 602.471 46.3271C602.211 46.3271 601.999 46.4467 601.999 46.5929C601.999 46.7408 601.29 46.8588 600.403 46.8588C599.517 46.8588 598.808 46.7408 598.808 46.5929C598.808 46.4467 598.507 46.3271 598.138 46.3271C597.211 46.3271 594.555 43.6712 594.555 42.744C594.555 42.3752 594.435 42.0735 594.289 42.0735C594.141 42.0735 594.023 41.3645 594.023 40.4784C594.023 39.5923 594.141 38.8833 594.289 38.8833C594.435 38.8833 594.555 38.5815 594.555 38.2128C594.555 37.2855 597.211 34.6297 598.138 34.6297C598.507 34.6297 598.808 34.51 598.808 34.3638C598.808 34.2176 599.406 34.098 600.138 34.098C600.869 34.098 601.467 34.2176 601.467 34.3638ZM707.807 34.3638C707.807 34.51 708.046 34.6297 708.339 34.6297C708.631 34.6297 708.87 34.7493 708.87 34.8955C708.87 35.0417 709.054 35.1614 709.278 35.1614C709.807 35.1614 711.529 36.883 711.529 37.4123C711.529 37.6364 711.649 37.8199 711.795 37.8199C711.941 37.8199 712.061 38.2886 712.061 38.8612C712.061 39.4341 712.21 39.9722 712.393 40.0575C712.659 40.1814 712.659 40.2436 712.393 40.3675C712.193 40.4608 712.061 41.0441 712.061 41.8297C712.061 42.5486 711.941 43.1369 711.795 43.1369C711.649 43.1369 711.529 43.3203 711.529 43.5444C711.529 44.0737 709.807 45.7954 709.278 45.7954C709.054 45.7954 708.87 45.915 708.87 46.0612C708.87 46.2075 708.631 46.3271 708.339 46.3271C708.046 46.3271 707.807 46.4467 707.807 46.5929C707.807 46.7408 707.098 46.8588 706.212 46.8588C705.326 46.8588 704.617 46.7408 704.617 46.5929C704.617 46.4467 704.378 46.3271 704.085 46.3271C703.793 46.3271 703.553 46.2075 703.553 46.0612C703.553 45.915 703.369 45.7954 703.143 45.7954C702.64 45.7954 701.427 44.6233 701.427 44.1381C701.427 43.9445 701.187 43.6136 700.895 43.4027C700.427 43.0654 700.363 42.7144 700.363 40.4784C700.363 38.2423 700.427 37.8914 700.895 37.554C701.187 37.3432 701.427 37.0122 701.427 36.8187C701.427 36.3335 702.64 35.1614 703.143 35.1614C703.369 35.1614 703.553 35.0417 703.553 34.8955C703.553 34.7493 703.793 34.6297 704.085 34.6297C704.378 34.6297 704.617 34.51 704.617 34.3638C704.617 34.216 705.326 34.098 706.212 34.098C707.098 34.098 707.807 34.216 707.807 34.3638Z" fill="#666666"/>
<path fill-rule="evenodd" clip-rule="evenodd" d="M494.595 21.0713C494.595 21.2175 494.356 21.3371 494.063 21.3371C493.709 21.3371 493.532 21.5144 493.532 21.8688C493.532 22.1613 493.412 22.4005 493.266 22.4005C493.106 22.4005 493 23.5123 493 25.2039C493 27.8263 493.042 28.0498 493.653 28.66C494.012 29.0189 494.49 29.3126 494.716 29.3126C494.942 29.3126 495.127 29.4323 495.127 29.5785C495.127 29.7534 501.773 29.8443 514.534 29.8443C527.295 29.8443 533.941 29.7534 533.941 29.5785C533.941 29.4323 534.129 29.3126 534.359 29.3126C535.343 29.3126 535.536 28.6597 535.536 25.3249C535.536 21.99 535.343 21.3371 534.359 21.3371C534.129 21.3371 533.941 21.2175 533.941 21.0713C533.941 20.8963 527.206 20.8054 514.268 20.8054C501.33 20.8054 494.595 20.8963 494.595 21.0713ZM493.598 33.7058C493.06 34.2808 493 34.6121 493 37.0218V39.6986L493.922 40.6201L494.843 41.5418H515.597H536.351L537.273 40.6201L538.195 39.6986V37.0191C538.195 34.5286 538.149 34.2936 537.542 33.6872L536.89 33.0345L515.543 33.0508L494.196 33.067L493.598 33.7058ZM493.598 45.4032C493.06 45.9783 493 46.3095 493 48.7192V51.396L493.922 52.3175L494.843 53.2392H514.537H534.231L534.883 52.5865C535.504 51.9655 535.536 51.7786 535.536 48.7128C535.536 46.2755 535.444 45.399 535.156 45.1119C534.833 44.7889 531.732 44.7344 514.486 44.7482L494.196 44.7644L493.598 45.4032ZM493.598 57.1007C493.056 57.6797 493 58.0024 493 60.5405C493 62.2305 493.106 63.3415 493.266 63.3415C493.412 63.3415 493.532 63.5808 493.532 63.8732C493.532 64.2276 493.709 64.4049 494.063 64.4049C494.356 64.4049 494.595 64.5245 494.595 64.6707C494.595 64.8438 498.583 64.9366 506.027 64.9366C513.47 64.9366 517.458 64.8438 517.458 64.6707C517.458 64.5245 517.698 64.4049 517.99 64.4049C518.344 64.4049 518.522 64.2276 518.522 63.8732C518.522 63.5808 518.641 63.3415 518.787 63.3415C518.948 63.3415 519.053 62.2297 519.053 60.5381C519.053 57.9158 519.011 57.6922 518.401 57.082L517.748 56.4294L505.972 56.4456L494.196 56.4618L493.598 57.1007Z" fill="#666666"/>
</svg>
